SplineFontDB: 3.0
FontName: Oswald-HeavyPole
FullName: Oswald-HeavyPole
FamilyName: Oswald
Weight: Heavy
Version: 1
ItalicAngle: 0
UnderlinePosition: -240
UnderlineWidth: 125
Ascent: 1638
Descent: 410
UFOAscent: 1626
UFODescent: -250
LayerCount: 2
Layer: 0 0 "Back"  1
Layer: 1 0 "Fore"  0
OS2Version: 0
OS2_WeightWidthSlopeOnly: 0
OS2_UseTypoMetrics: 0
CreationTime: 1369144840
ModificationTime: 1369161466
PfmFamily: 0
TTFWeight: 800
TTFWidth: 5
LineGap: 0
VLineGap: 0
OS2TypoAscent: 2444
OS2TypoAOffset: 0
OS2TypoDescent: -591
OS2TypoDOffset: 0
OS2TypoLinegap: 0
OS2WinAscent: 2444
OS2WinAOffset: 0
OS2WinDescent: 591
OS2WinDOffset: 0
HheadAscent: 0
HheadAOffset: 1
HheadDescent: 0
HheadDOffset: 1
OS2Vendor: 'newt'
Lookup: 258 0 0 "'kern' Horizontal Kerning in Latin lookup 0"  {"'kern' Horizontal Kerning in Latin lookup 0 subtable"  } ['kern' ('latn' <'dflt' > ) ]
Lookup: 258 0 0 "kernHorizontalKerninginLatinloo"  {"kernHorizontalKerninginLatinloo subtable"  } ['kern' ('latn' <'dflt' > ) ]
Lookup: 258 0 0 "pos_pair_kernlatn_0"  {"pos_pair_kernlatn_0 subtable"  } ['kern' ('latn' <'dflt' > ) ]
Lookup: 258 0 0 "pos_pair_kernlatn_2"  {"pos_pair_kernlatn_2 subtable"  } ['kern' ('latn' <'dflt' > ) ]
DEI: 91125
LangName: 1033 "" "" "" "" "" "Version 1" 
Encoding: Custom
Compacted: 1
UnicodeInterp: none
NameList: AGL For New Fonts
DisplaySize: -72
AntiAlias: 1
FitToEm: 1
WinInfo: 0 14 6
BeginPrivate: 4
BlueValues 27 [-66 0 2923 2989 4199 4257]
OtherBlues 11 [-959 -939]
BlueShift 1 0
BlueScale 19 0.08945421317038466
EndPrivate
BeginChars: 598 533

StartChar: A
Encoding: 65 65 0
Width: 1000
VWidth: 0
GlyphClass: 2
Flags: W
HStem: 0 21G<0 367.528 649.959 1001> 328 236<354 816>
VStem: 650 351<0 495.965>
DStem2: 0 0 284 328 0.297138 0.954835<397.573 643.714>
LayerCount: 2
UndoRedoHistory
Layer: 1
Undoes
EndUndoes
Redoes
EndRedoes
EndUndoRedoHistory
Fore
SplineSet
0 0 m 1
 506 1626 l 1
 954 1626 l 1
 1001 0 l 1
 650 0 l 1
 649 492 l 1
 664 1147 l 1
 498 492 l 1
 362 0 l 1
 0 0 l 1
284 328 m 1
 354 564 l 1
 816 564 l 1
 828 328 l 1
 284 328 l 1
EndSplineSet
EndChar

StartChar: AE
Encoding: 256 198 1
Width: 1429
VWidth: 0
GlyphClass: 2
Flags: HW
LayerCount: 2
UndoRedoHistory
Layer: 1
Undoes
EndUndoes
Redoes
EndRedoes
EndUndoRedoHistory
Fore
SplineSet
47 0 m 1
 436 0 l 1
 600 321 l 1
 836 321 l 1
 791 0 l 1
 1414 0 l 1
 1453 275 l 1
 1152 275 l 1
 1213 713 l 1
 1425 713 l 1
 1466 999 l 1
 1254 999 l 1
 1303 1349 l 1
 1604 1349 l 1
 1643 1626 l 1
 955 1626 l 1
 47 0 l 1
710 572 m 1
 938 1044 l 1
 872 572 l 1
 710 572 l 1
EndSplineSet
EndChar

StartChar: B
Encoding: 66 66 11
Width: 1184
VWidth: 0
GlyphClass: 2
Flags: W
HStem: 0 287<554 687.211> 730 262<619 751.044>
DStem2: 81 0 464 0 0.138863 0.990312<53.1845 1641.91>
LayerCount: 2
UndoRedoHistory
Layer: 1
Undoes
EndUndoes
Redoes
EndRedoes
EndUndoRedoHistory
Fore
SplineSet
286 0 m 1
 578 0 l 2
 881 0 1093 130 1138 493 c 0
 1167 727 1089 862 916 878 c 1
 1055 908 1155 1001 1187 1199 c 0
 1252 1597 989 1626 730 1626 c 2
 515 1626 l 1
 477 1356 l 1
 720 1356 l 2
 816 1356 864 1284 851 1188 c 0
 834 1068 797 992 653 992 c 2
 426 992 l 1
 389 730 l 1
 619 730 l 2
 757 730 794 678 769 500 c 0
 749 359 693 287 554 287 c 2
 327 287 l 1
 286 0 l 1
EndSplineSet
Refer: 372 -1 N 1 0 0 1 7 0 2
EndChar

StartChar: C
Encoding: 67 67 12
Width: 1060
VWidth: 0
GlyphClass: 2
Flags: W
HStem: -35 284<506.144 640.722> 1368 284<649.969 784.855>
DStem2: 136 540 500 409 0.138648 0.990342<-222.277 861.94> 678 409 1064 468 0.139862 0.990171<-155.387 167.725 696.054 948.446>
LayerCount: 2
UndoRedoHistory
Layer: 1
Undoes
EndUndoes
Redoes
EndRedoes
EndUndoRedoHistory
Fore
SplineSet
527 -35 m 0
 887 -35 1025 193 1064 468 c 2
 1079 575 l 1
 702 575 l 1
 678 409 l 2
 669 343 651 249 567 249 c 0
 483 249 491 343 500 409 c 2
 612 1209 l 2
 621 1275 640 1368 724 1368 c 0
 808 1368 800 1275 791 1209 c 2
 768 1046 l 1
 1145 1046 l 1
 1160 1149 l 2
 1199 1424 1124 1652 764 1652 c 0
 404 1652 260 1424 211 1077 c 2
 136 540 l 2
 87 193 167 -35 527 -35 c 0
EndSplineSet
EndChar

StartChar: D
Encoding: 68 68 18
Width: 1185
VWidth: 0
GlyphClass: 2
Flags: W
HStem: 0 284<488 667.419>
DStem2: 81 0 464 0 0.138863 0.990312<53.1845 1641.91> 703 435 1115 530 0.138674 0.990338<-136.919 884.978>
LayerCount: 2
UndoRedoHistory
Layer: 1
Undoes
EndUndoes
Redoes
EndRedoes
EndUndoRedoHistory
Fore
SplineSet
546 1342 m 1
 692 1342 l 2
 818 1342 824 1300 809 1192 c 2
 703 435 l 2
 688 327 669 284 543 284 c 2
 397 284 l 1
 357 0 l 1
 488 0 l 2
 912 0 1063 149 1115 530 c 1
 1195 1096 l 2
 1249 1477 1141 1626 717 1626 c 2
 586 1626 l 1
 546 1342 l 1
EndSplineSet
Refer: 372 -1 N 1 0 0 1 7 0 2
EndChar

StartChar: E
Encoding: 69 69 21
Width: 887
VWidth: 0
GlyphClass: 2
Flags: W
DStem2: 81 0 464 0 0.138863 0.990312<53.1845 1641.91>
LayerCount: 2
UndoRedoHistory
Layer: 1
Undoes
EndUndoes
Redoes
EndRedoes
EndUndoRedoHistory
Fore
SplineSet
276 0 m 1
 793 0 l 1
 832 275 l 1
 315 275 l 1
 276 0 l 1
376 713 m 1
 801 713 l 1
 842 999 l 1
 417 999 l 1
 376 713 l 1
466 1350 m 1
 979 1350 l 1
 1018 1626 l 1
 505 1626 l 1
 466 1350 l 1
EndSplineSet
Refer: 372 -1 N 1 0 0 1 7 0 2
EndChar

StartChar: Eng
Encoding: 280 330 29
Width: 1025
VWidth: 0
GlyphClass: 2
Flags: HW
LayerCount: 2
UndoRedoHistory
Layer: 1
Undoes
EndUndoes
Redoes
EndRedoes
EndUndoRedoHistory
Fore
SplineSet
80 0 m 1
 409 0 l 1
 517 767 l 1
 683 0 l 1
 945 0 l 1
 1174 1626 l 1
 856 1626 l 1
 763 962 l 1
 581 1626 l 1
 309 1626 l 1
 80 0 l 1
327 -444 m 1
 514 -444 l 2
 812 -444 904 -291 945 1 c 1
 657 432 l 1
 589 -48 l 2
 572 -167 523 -210 361 -207 c 1
 327 -444 l 1
EndSplineSet
EndChar

StartChar: Eth
Encoding: 282 208 31
Width: 1185
VWidth: 0
GlyphClass: 2
Flags: HW
LayerCount: 2
UndoRedoHistory
Layer: 1
Undoes
EndUndoes
Redoes
EndRedoes
EndUndoRedoHistory
Fore
SplineSet
114 746 m 1
 645 746 l 1
 673 946 l 1
 142 946 l 1
 114 746 l 1
EndSplineSet
Refer: 18 68 N 1 0 0 1 0 0 2
EndChar

StartChar: Euro
Encoding: 283 8364 32
Width: 1191
VWidth: 0
GlyphClass: 2
Flags: HW
LayerCount: 2
UndoRedoHistory
Layer: 1
Undoes
EndUndoes
Redoes
EndRedoes
EndUndoRedoHistory
Fore
SplineSet
740 657 m 1
 756 771 l 1
 328 771 l 1
 341 865 l 1
 769 865 l 1
 785 979 l 1
 164 979 l 1
 148 865 l 1
 282 865 l 1
 268 771 l 1
 134 771 l 1
 118 657 l 1
 740 657 l 1
EndSplineSet
Refer: 12 67 N 1 0 0 1 48 0 2
EndChar

StartChar: F
Encoding: 70 70 33
Width: 825
VWidth: 0
GlyphClass: 2
Flags: W
DStem2: 81 0 464 0 0.138863 0.990312<53.1845 1641.91>
LayerCount: 2
UndoRedoHistory
Layer: 1
Undoes
EndUndoes
Redoes
EndRedoes
EndUndoRedoHistory
Fore
SplineSet
389 713 m 1
 820 713 l 1
 860 999 l 1
 430 999 l 1
 389 713 l 1
472 1350 m 1
 953 1350 l 1
 992 1626 l 1
 511 1626 l 1
 472 1350 l 1
EndSplineSet
Refer: 372 -1 N 1 0 0 1 7 0 2
EndChar

StartChar: G
Encoding: 71 71 34
Width: 1087
VWidth: 0
GlyphClass: 2
Flags: W
HStem: -36 285<322 655.309> 1368 284<650.969 785.855>
DStem2: 137 540 501 409 0.138648 0.990342<-204.624 861.94> 889 468 1115 875 0.145519 0.989355<-307.186 108.044>
LayerCount: 2
UndoRedoHistory
Layer: 1
Undoes
EndUndoes
Redoes
EndRedoes
EndUndoRedoHistory
Fore
SplineSet
487 -36 m 0
 809 -36 872 346 889 468 c 2
 904 575 l 1
 735 575 l 1
 712 409 l 2
 703 343 666 249 582 249 c 0
 498 249 492 343 501 409 c 2
 613 1209 l 2
 622 1275 641 1368 725 1368 c 0
 809 1368 801 1275 792 1209 c 2
 769 1046 l 1
 1146 1046 l 1
 1161 1149 l 2
 1200 1424 1125 1652 765 1652 c 0
 405 1652 261 1424 212 1077 c 2
 137 540 l 2
 90 205 157 -36 487 -36 c 0
743 0 m 1
 992 0 l 1
 1115 875 l 1
 656 875 l 1
 623 640 l 1
 744 640 l 1
 734 569 l 1
 743 0 l 1
EndSplineSet
EndChar

StartChar: H
Encoding: 72 72 39
Width: 1168
VWidth: 0
GlyphClass: 2
Flags: W
DStem2: 81 0 464 0 0.138863 0.990312<53.1845 1641.91> 661 0 1044 0 0.138863 0.990312<53.1845 1641.91>
LayerCount: 2
UndoRedoHistory
Layer: 1
Undoes
EndUndoes
Redoes
EndRedoes
EndUndoRedoHistory
Fore
SplineSet
380 709 m 1
 912 709 l 1
 954 1004 l 1
 421 1004 l 1
 380 709 l 1
EndSplineSet
Refer: 372 -1 N 1 0 0 1 587 0 2
Refer: 372 -1 N 1 0 0 1 7 0 2
EndChar

StartChar: Hbar
Encoding: 288 294 40
Width: 1092
VWidth: 0
GlyphClass: 2
Flags: HW
LayerCount: 2
UndoRedoHistory
Layer: 1
Undoes
EndUndoes
Redoes
EndRedoes
EndUndoRedoHistory
Fore
SplineSet
1235 1257 m 5
 1250 1369 l 5
 150 1369 l 5
 134 1257 l 5
 1235 1257 l 5
EndSplineSet
Refer: 39 72 N 1 0 0 1 -38 0 2
EndChar

StartChar: J
Encoding: 74 74 53
Width: 681
VWidth: 0
GlyphClass: 2
Flags: W
HStem: -44 286<30 178.032>
DStem2: 225 362 608 362 0.138679 0.990337<53.1139 1276.33>
LayerCount: 2
UndoRedoHistory
Layer: 1
Undoes
EndUndoes
Redoes
EndRedoes
EndUndoRedoHistory
Fore
SplineSet
-10 -44 m 1
 177 -44 l 2
 475 -44 567 109 608 401 c 1
 225 401 l 1
 208 282 152 239 30 242 c 1
 -10 -44 l 1
EndSplineSet
Refer: 373 -1 N 1 0 0 1 100 0 2
EndChar

StartChar: K
Encoding: 75 75 55
Width: 1146
VWidth: 0
GlyphClass: 2
Flags: W
DStem2: 81 0 464 0 0.138863 0.990312<53.1845 1641.91> 355 496 918 884 0.44911 0.893476<599.518 1264.72> 918 884 580 694 0.173785 -0.984784<128.369 829.014>
LayerCount: 2
UndoRedoHistory
Layer: 1
Undoes
EndUndoes
Redoes
EndRedoes
EndUndoRedoHistory
Fore
SplineSet
350 458 m 1
 580 694 l 1
 679 0 l 1
 1074 0 l 1
 918 884 l 1
 1301 1626 l 1
 923 1626 l 1
 355 496 l 1
 350 458 l 1
EndSplineSet
Refer: 372 -1 N 1 0 0 1 7 0 2
EndChar

StartChar: L
Encoding: 76 76 57
Width: 916
VWidth: 0
GlyphClass: 2
Flags: W
DStem2: 81 0 464 0 0.138863 0.990312<53.1845 1641.91>
LayerCount: 2
UndoRedoHistory
Layer: 1
Undoes
EndUndoes
Redoes
EndRedoes
EndUndoRedoHistory
Fore
SplineSet
276 0 m 1
 806 0 l 1
 845 275 l 1
 315 275 l 1
 276 0 l 1
EndSplineSet
Refer: 372 -1 N 1 0 0 1 7 0 2
EndChar

StartChar: Lslash
Encoding: 306 321 62
Width: 960
VWidth: 0
GlyphClass: 2
Flags: HW
LayerCount: 2
UndoRedoHistory
Layer: 1
Undoes
EndUndoes
Redoes
EndRedoes
EndUndoRedoHistory
Fore
SplineSet
839 997 m 1
 869 1205 l 1
 147 876 l 5
 118 668 l 5
 839 997 l 1
EndSplineSet
Refer: 57 76 N 1 0 0 1 44 0 2
EndChar

StartChar: M
Encoding: 77 77 63
Width: 1295
VWidth: 0
GlyphClass: 2
Flags: W
VStem: 512 247<792 1049>
DStem2: 69 0 339 0 0.15434 0.988018<41.6717 1104.8> 960 0 1226 0 0.123885 0.992297<32.9533 1045.37>
LayerCount: 2
UndoRedoHistory
Layer: 1
Undoes
EndUndoes
Redoes
EndRedoes
EndUndoRedoHistory
Fore
SplineSet
69 0 m 1
 339 0 l 1
 512 1049 l 1
 531 0 l 1
 777 0 l 1
 1076 1039 l 1
 960 0 l 1
 1226 0 l 1
 1429 1626 l 1
 1028 1626 l 1
 759 792 l 1
 741 1626 l 1
 323 1626 l 1
 69 0 l 1
EndSplineSet
EndChar

StartChar: N
Encoding: 78 78 64
Width: 1025
VWidth: 0
GlyphClass: 2
Flags: W
DStem2: 80 0 409 0 0.13946 0.990228<45.8824 820.449> 763 962 1174 1626 0.13946 0.990228<0 670.481>
LayerCount: 2
UndoRedoHistory
Layer: 1
Undoes
EndUndoes
Redoes
EndRedoes
EndUndoRedoHistory
Fore
SplineSet
80 0 m 1
 409 0 l 1
 517 767 l 1
 683 0 l 1
 945 0 l 1
 1174 1626 l 1
 856 1626 l 1
 763 962 l 1
 581 1626 l 1
 309 1626 l 1
 80 0 l 1
EndSplineSet
EndChar

StartChar: O
Encoding: 79 79 69
Width: 1064
VWidth: 0
GlyphClass: 2
Flags: W
HStem: -35 284<506.144 640.828> 1368 284<649.969 784.856>
DStem2: 136 540 500 409 0.138648 0.990342<-222.277 861.94> 678 409 1080 540 0.139862 0.990171<-134.037 937.27>
LayerCount: 2
UndoRedoHistory
Layer: 1
Undoes
EndUndoes
Redoes
EndRedoes
EndUndoRedoHistory
Fore
SplineSet
567 249 m 0
 483 249 491 343 500 409 c 2
 612 1209 l 2
 621 1275 640 1368 724 1368 c 0
 808 1368 800 1275 791 1209 c 2
 678 409 l 2
 669 343 651 249 567 249 c 0
527 -35 m 0
 887 -35 1031 193 1080 540 c 2
 1155 1077 l 2
 1204 1424 1124 1652 764 1652 c 0
 404 1652 260 1424 211 1077 c 2
 136 540 l 2
 87 193 167 -35 527 -35 c 0
EndSplineSet
EndChar

StartChar: OE
Encoding: 311 338 70
Width: 1338
VWidth: 0
GlyphClass: 2
Flags: HW
LayerCount: 2
UndoRedoHistory
Layer: 1
Undoes
EndUndoes
Redoes
EndRedoes
EndUndoRedoHistory
Fore
SplineSet
533 0 m 2
 1307 0 l 1
 1346 275 l 1
 1045 275 l 1
 1106 713 l 1
 1319 713 l 1
 1359 999 l 1
 1146 999 l 1
 1199 1375 l 1
 1500 1375 l 1
 1539 1650 l 1
 765 1650 l 1
 404 1649 253 1376 207 1046 c 2
 143 591 l 2
 94 242 180 0 533 0 c 2
573 280 m 1
 487 279 502 413 512 487 c 2
 605 1150 l 2
 615 1221 639 1359 724 1359 c 2
 815 1359 l 1
 663 280 l 1
 573 280 l 1
EndSplineSet
EndChar

StartChar: Oslash
Encoding: 319 216 78
Width: 1147
VWidth: 0
GlyphClass: 2
Flags: HW
LayerCount: 2
UndoRedoHistory
Layer: 1
Undoes
EndUndoes
Redoes
EndRedoes
EndUndoRedoHistory
Fore
SplineSet
105 -162 m 1
 173 -197 l 1
 1206 1779 l 1
 1138 1814 l 1
 105 -162 l 1
EndSplineSet
Refer: 69 79 N 1 0 0 1 0 0 2
EndChar

StartChar: P
Encoding: 80 80 80
Width: 1170
VWidth: 0
GlyphClass: 2
Flags: W
DStem2: 81 0 464 0 0.138863 0.990312<53.1845 1641.91>
LayerCount: 2
UndoRedoHistory
Layer: 1
Undoes
EndUndoes
Redoes
EndRedoes
EndUndoRedoHistory
Fore
SplineSet
382 670 m 1
 686 670 l 2
 936 670 1163 724 1223 1148 c 0
 1267 1462 1152 1626 875 1626 c 2
 516 1626 l 1
 475 1338 l 1
 771 1338 l 2
 882 1338 878 1244 866 1157 c 0
 847 1024 828 955 721 955 c 2
 422 955 l 1
 382 670 l 1
EndSplineSet
Refer: 372 -1 N 1 0 0 1 7 0 2
EndChar

StartChar: Q
Encoding: 81 81 81
Width: 1151
VWidth: 0
GlyphClass: 2
Flags: HW
LayerCount: 2
UndoRedoHistory
Layer: 1
Undoes
EndUndoes
Redoes
EndRedoes
EndUndoRedoHistory
Fore
SplineSet
902 -282 m 1
 928 -94 l 1
 819 -33 637 124 621 157 c 1
 561 -20 l 1
 631 -121 810 -242 902 -282 c 1
EndSplineSet
Refer: 69 79 N 1 0 0 1 0 0 2
EndChar

StartChar: R
Encoding: 82 82 82
Width: 1227
VWidth: 0
GlyphClass: 2
Flags: W
DStem2: 81 0 464 0 0.138863 0.990312<53.1845 1641.91>
LayerCount: 2
UndoRedoHistory
Layer: 1
Undoes
EndUndoes
Redoes
EndRedoes
EndUndoRedoHistory
Fore
SplineSet
372 701 m 1
 627 701 l 1
 734 0 l 1
 1128 0 l 1
 981 763 l 1
 1151 851 1228 980 1257 1187 c 0
 1307 1546 1107 1626 797 1626 c 2
 502 1626 l 1
 460 1329 l 1
 764 1329 l 2
 871 1329 910 1281 892 1155 c 0
 875 1033 836 976 705 976 c 2
 411 976 l 1
 372 701 l 1
EndSplineSet
Refer: 372 -1 N 1 0 0 1 7 0 2
EndChar

StartChar: S
Encoding: 83 83 86
Width: 918
VWidth: 0
GlyphClass: 2
Flags: W
HStem: -37 310<435.177 553.257> 1376 313<605.631 854>
VStem: 100 331<276.969 503>
LayerCount: 2
UndoRedoHistory
Layer: 1
Undoes
EndUndoes
Redoes
EndRedoes
EndUndoRedoHistory
Fore
SplineSet
478 -37 m 0
 735 -37 920 155 953 387 c 0
 986 623 897 765 779 896 c 2
 707 975 l 2
 642 1047 562 1120 582 1263 c 0
 587 1300 615 1376 665 1376 c 0
 712 1376 721 1325 711 1253 c 2
 697 1153 l 1
 1035 1187 l 1
 1046 1264 l 2
 1078 1489 976 1689 732 1689 c 0
 451 1689 242 1514 201 1222 c 0
 169 993 260 878 365 767 c 2
 443 684 l 2
 538 584 589 504 570 368 c 0
 566 336 555 273 497 273 c 0
 440 273 399 319 431 547 c 1
 100 503 l 1
 53 104 179 -37 478 -37 c 0
EndSplineSet
EndChar

StartChar: T
Encoding: 84 84 92
Width: 887
VWidth: 0
GlyphClass: 2
Flags: W
DStem2: 229 0 612 0 0.138863 0.990312<53.1845 1641.91>
LayerCount: 2
UndoRedoHistory
Layer: 1
Undoes
EndUndoes
Redoes
EndRedoes
EndUndoRedoHistory
Fore
SplineSet
991 1321 m 1
 1034 1626 l 1
 248 1626 l 1
 205 1321 l 1
 991 1321 l 1
EndSplineSet
Refer: 372 -1 N 1 0 0 1 155 0 2
EndChar

StartChar: Tbar
Encoding: 329 358 93
Width: 887
VWidth: 0
GlyphClass: 2
Flags: HW
LayerCount: 2
UndoRedoHistory
Layer: 1
Undoes
EndUndoes
Redoes
EndRedoes
EndUndoRedoHistory
Fore
SplineSet
189 933 m 1
 162 741 l 1
 873 741 l 1
 900 933 l 1
 189 933 l 1
EndSplineSet
Refer: 92 84 N 1 0 0 1 0 0 2
EndChar

StartChar: Thorn
Encoding: 332 222 96
Width: 1077
VWidth: 0
GlyphClass: 2
Flags: HW
LayerCount: 2
UndoRedoHistory
Layer: 1
Undoes
EndUndoes
Redoes
EndRedoes
EndUndoRedoHistory
Fore
SplineSet
354 491 m 1
 564 492 l 2
 901 493 1071 575 1130 994 c 0
 1178 1338 1032 1448 708 1448 c 2
 488 1448 l 1
 448 1161 l 1
 650 1160 l 2
 766 1160 799 1096 781 971 c 0
 762 835 713 777 593 777 c 2
 394 777 l 1
 354 491 l 1
EndSplineSet
Refer: 372 -1 N 1 0 0 1 7 0 2
EndChar

StartChar: U
Encoding: 85 85 97
Width: 1084
VWidth: 0
GlyphClass: 2
Flags: W
HStem: -35 284<516.144 650.828>
DStem2: 146 540 510 409 0.139143 0.990272<-222.066 1096.72> 688 409 1090 540 0.139143 0.990272<-134.019 1228.95>
LayerCount: 2
UndoRedoHistory
Layer: 1
Undoes
EndUndoes
Redoes
EndRedoes
EndUndoRedoHistory
Fore
SplineSet
537 -35 m 0
 897 -35 1041 193 1090 540 c 2
 1243 1626 l 1
 859 1626 l 1
 688 409 l 2
 679 343 661 249 577 249 c 0
 493 249 501 343 510 409 c 2
 681 1626 l 1
 299 1626 l 1
 146 540 l 2
 97 193 177 -35 537 -35 c 0
EndSplineSet
EndChar

StartChar: V
Encoding: 86 86 108
Width: 908
VWidth: 0
GlyphClass: 2
Flags: HW
LayerCount: 2
UndoRedoHistory
Layer: 1
Undoes
EndUndoes
Redoes
EndRedoes
EndUndoRedoHistory
Fore
SplineSet
272 0 m 1
 601 0 l 1
 1128 1626 l 1
 777 1626 l 1
 563 848 l 1
 594 1626 l 1
 239 1626 l 1
 272 0 l 1
EndSplineSet
EndChar

StartChar: W
Encoding: 87 87 109
Width: 1241
VWidth: 0
GlyphClass: 2
Flags: W
VStem: 245 322<1466.09 1626> 744 203<698 925>
DStem2: 483 689 744 925 0.243266 0.96996<0 292.403>
LayerCount: 2
UndoRedoHistory
Layer: 1
Undoes
EndUndoes
Redoes
EndRedoes
EndUndoRedoHistory
Fore
SplineSet
211 0 m 1
 521 0 l 1
 744 925 l 1
 717 0 l 1
 1027 0 l 1
 1454 1626 l 1
 1131 1626 l 1
 947 698 l 1
 969 1626 l 1
 718 1626 l 1
 483 689 l 1
 567 1626 l 1
 245 1626 l 1
 211 0 l 1
EndSplineSet
EndChar

StartChar: X
Encoding: 88 88 114
Width: 947
VWidth: 0
GlyphClass: 2
Flags: W
LayerCount: 2
UndoRedoHistory
Layer: 1
Undoes
EndUndoes
Redoes
EndRedoes
EndUndoRedoHistory
Fore
SplineSet
-11 0 m 1
 299 0 l 1
 562 542 l 1
 761 673 l 1
 1162 1626 l 1
 848 1626 l 1
 601 1010 l 1
 423 919 l 1
 -11 0 l 1
615 0 m 1
 974 0 l 1
 598 1626 l 1
 233 1626 l 1
 615 0 l 1
EndSplineSet
EndChar

StartChar: Y
Encoding: 89 89 115
Width: 910
VWidth: 0
GlyphClass: 2
Flags: W
DStem2: 269 0 637 0 0.139688 0.990196<51.4053 668.719>
LayerCount: 2
UndoRedoHistory
Layer: 1
Undoes
EndUndoes
Redoes
EndRedoes
EndUndoRedoHistory
Fore
SplineSet
269 0 m 1
 637 0 l 1
 716 560 l 1
 1140 1626 l 1
 794 1626 l 1
 618 1067 l 1
 585 1626 l 1
 228 1626 l 1
 347 560 l 1
 269 0 l 1
EndSplineSet
EndChar

StartChar: Z
Encoding: 90 90 120
Width: 854
VWidth: 0
GlyphClass: 2
Flags: W
LayerCount: 2
UndoRedoHistory
Layer: 1
Undoes
EndUndoes
Redoes
EndRedoes
EndUndoRedoHistory
Fore
SplineSet
62 0 m 1
 784 0 l 1
 822 275 l 1
 470 275 l 1
 978 1385 l 1
 1012 1626 l 1
 333 1626 l 1
 294 1350 l 1
 601 1350 l 1
 95 239 l 1
 62 0 l 1
EndSplineSet
EndChar

StartChar: a
Encoding: 97 97 124
Width: 842
VWidth: 0
GlyphClass: 2
Flags: W
HStem: 955 290<500.952 718.5>
DStem2: 499 256 904 921 0.138339 0.990385<-46.3969 325.129 449.037 699.666>
LayerCount: 2
UndoRedoHistory
Layer: 1
Undoes
EndUndoes
Redoes
EndRedoes
EndUndoRedoHistory
Fore
SplineSet
274 -27 m 0
 382 -30 471 57 511 159 c 1
 520 0 l 1
 820 0 l 1
 815 112 814 240 831 400 c 1
 904 921 l 2
 932 1117 812 1245 625 1245 c 0
 362 1245 240 1128 178 836 c 2
 165 774 l 1
 467 760 l 1
 494 886 l 2
 502 922 513 955 551 955 c 0
 585 955 592 921 587 886 c 2
 565 726 l 1
 411 658 118 591 66 275 c 0
 43 134 105 -23 274 -27 c 0
427 212 m 0
 387 212 358 256 368 330 c 0
 378 400 442 526 544 578 c 1
 499 256 l 1
 476 226 449 212 427 212 c 0
EndSplineSet
EndChar

StartChar: acute
Encoding: 357 180 128
Width: 601
VWidth: 0
GlyphClass: 2
Flags: W
HStem: 1281 415
LayerCount: 2
UndoRedoHistory
Layer: 1
Undoes
EndUndoes
Redoes
EndRedoes
EndUndoRedoHistory
Fore
SplineSet
278 1281 m 1
 504 1281 l 1
 812 1696 l 1
 456 1696 l 1
 278 1281 l 1
EndSplineSet
EndChar

StartChar: ae
Encoding: 359 230 130
Width: 1193
VWidth: 0
GlyphClass: 2
Flags: HW
LayerCount: 2
UndoRedoHistory
Layer: 1
Undoes
EndUndoes
Redoes
EndRedoes
EndUndoRedoHistory
Fore
SplineSet
333 -27 m 0
 433 -27 562 25 621 135 c 1
 632 22 758 -27 842 -27 c 0
 1034 -26 1160 92 1190 302 c 2
 1215 484 l 1
 917 484 l 1
 897 345 l 2
 888 277 886 232 847 232 c 3
 813 232 813 266 824 346 c 2
 860 603 l 1
 1017 634 1260 699 1295 949 c 0
 1313 1079 1236 1245 1023 1245 c 3
 909 1245 801 1176 760 1084 c 1
 753 1174 678 1246 563 1246 c 3
 325 1246 193 1065 157 774 c 1
 474 774 l 1
 484 843 l 2
 499 952 599 954 584 844 c 2
 564 699 l 1
 403 668 135 638 85 283 c 0
 55 71 178 -27 333 -27 c 0
427 218 m 3
 372 218 369 289 373 318 c 0
 378 357 416 499 544 547 c 1
 513 317 l 2
 501 231 467 218 427 218 c 3
882 764 m 1
 901 902 l 18
 921 1032 1043 1067 1022 921 c 0
 1005 797 936 773 882 764 c 1
EndSplineSet
EndChar

StartChar: afii10018
Encoding: 177 1041 131
Width: 1069
VWidth: 0
GlyphClass: 2
Flags: HW
LayerCount: 2
UndoRedoHistory
Layer: 1
Undoes
EndUndoes
Redoes
EndRedoes
EndUndoRedoHistory
Fore
SplineSet
1065 1321 m 1
 1107 1626 l 1
 508 1626 l 1
 466 1321 l 1
 1065 1321 l 1
EndSplineSet
Refer: 210 -1 N 1 0 0 1 -133 0 2
Refer: 372 -1 N 1 0 0 1 7 0 2
EndChar

StartChar: afii10021
Encoding: 180 1044 132
Width: 1419
VWidth: 0
GlyphClass: 2
Flags: HW
LayerCount: 2
UndoRedoHistory
Layer: 1
Undoes
EndUndoes
Redoes
EndRedoes
EndUndoRedoHistory
Fore
SplineSet
-19 -281 m 1
 252 -281 l 1
 291 0 l 1
 1027 0 l 1
 988 -281 l 1
 1288 -281 l 1
 1371 309 l 1
 64 309 l 1
 -19 -281 l 1
EndSplineSet
Refer: 135 1051 N 0.971831 0 0 1 121 0 2
EndChar

StartChar: afii10024
Encoding: 182 1046 133
Width: 1684
VWidth: 0
GlyphClass: 2
Flags: HW
LayerCount: 2
UndoRedoHistory
Layer: 1
Undoes
EndUndoes
Redoes
EndRedoes
EndUndoRedoHistory
Fore
SplineSet
868 606 m 1
 884 720 l 1
 601 1626 l 1
 234 1626 l 1
 529 829 l 1
 44 0 l 1
 379 0 l 1
 738 675 l 1
 868 606 l 1
868 606 m 1
 1017 675 l 1
 1187 0 l 1
 1522 0 l 1
 1270 829 l 1
 1789 1626 l 1
 1422 1626 l 1
 884 720 l 1
 868 606 l 1
EndSplineSet
Refer: 372 -1 N 0.864525 0 0 1 589 0 2
EndChar

StartChar: afii10025
Encoding: 183 1047 134
Width: 800
VWidth: 0
GlyphClass: 2
Flags: HW
LayerCount: 2
UndoRedoHistory
Layer: 1
Undoes
EndUndoes
Redoes
EndRedoes
EndUndoRedoHistory
Fore
SplineSet
366 -24 m 0
 616 -24 741 167 778 433 c 0
 822 744 702 871 623 888 c 1
 748 908 863 1035 901 1307 c 0
 927 1495 891 1707 645 1707 c 0
 386 1707 281 1519 255 1337 c 2
 253 1321 l 1
 305 1321 l 1
 342 1584 488 1657 632 1657 c 0
 785 1657 878 1596 838 1309 c 0
 800 1036 711 909 515 909 c 2
 465 909 l 1
 460 873 l 1
 510 873 l 2
 705 873 748 669 714 429 c 0
 666 89 513 27 373 27 c 0
 220 27 140 143 172 373 c 1
 121 373 l 1
 118 352 l 1
 92 181 140 -24 366 -24 c 0
EndSplineSet
EndChar

StartChar: afii10029
Encoding: 187 1051 135
Width: 1295
VWidth: 0
GlyphClass: 2
Flags: W
DStem2: 372 1048 736 1048 0.140462 0.990086<-650.429 312.617> 788 0 1171 0 0.138863 0.990312<53.1845 1641.91>
LayerCount: 2
UndoRedoHistory
Layer: 1
Undoes
EndUndoes
Redoes
EndRedoes
EndUndoRedoHistory
Fore
SplineSet
1163 1626 m 1
 454 1626 l 1
 372 1048 l 2
 281 398 244 306 54 306 c 1
 11 0 l 1
 544 0 622 235 736 1048 c 2
 772 1307 l 1
 1118 1307 l 1
 1163 1626 l 1
EndSplineSet
Refer: 372 -1 N 1 0 0 1 714 0 2
EndChar

StartChar: afii10037
Encoding: 195 1059 136
Width: 1066
VWidth: 0
GlyphClass: 2
Flags: W
DStem2: 610 1626 234 1626 0.174519 -0.984654<0 545.164>
LayerCount: 2
UndoRedoHistory
Layer: 1
Undoes
EndUndoes
Redoes
EndRedoes
EndUndoRedoHistory
Fore
SplineSet
806 504 m 1
 1308 1626 l 1
 953 1626 l 1
 704 1089 l 1
 610 1626 l 1
 234 1626 l 1
 424 554 l 1
 200 0 l 1
 591 0 l 1
 806 504 l 1
EndSplineSet
EndChar

StartChar: afii10038
Encoding: 196 1060 137
Width: 1462
VWidth: 0
GlyphClass: 2
Flags: HW
LayerCount: 2
UndoRedoHistory
Layer: 1
Undoes
EndUndoes
Redoes
EndRedoes
EndUndoRedoHistory
Fore
SplineSet
867 1411 m 1
 536 1471 242 1283 206 1029 c 2
 147 612 l 2
 111 358 350 169 723 229 c 1
 761 496 l 1
 511 436 458 532 468 606 c 2
 529 1035 l 2
 539 1109 621 1221 832 1161 c 1
 867 1411 l 1
723 229 m 1
 1055 169 1348 357 1384 611 c 2
 1443 1028 l 2
 1479 1282 1238 1471 867 1411 c 1
 832 1161 l 1
 1080 1221 1132 1108 1122 1034 c 2
 1062 605 l 2
 1052 531 971 436 761 496 c 1
 723 229 l 1
EndSplineSet
Refer: 372 -1 N 0.907187 0 0 1.00984 470 0 2
EndChar

StartChar: afii10040
Encoding: 198 1062 138
Width: 1258
VWidth: 0
GlyphClass: 2
Flags: HW
LayerCount: 2
UndoRedoHistory
Layer: 1
Undoes
EndUndoes
Redoes
EndRedoes
EndUndoRedoHistory
Fore
SplineSet
1130 -368 m 1
 1221 275 l 1
 323 275 l 1
 285 0 l 1
 885 0 l 1
 834 -368 l 1
 1130 -368 l 1
EndSplineSet
Refer: 372 -1 N 1 0 0 1 612 0 2
Refer: 372 -1 N 1 0 0 1 7 0 2
EndChar

StartChar: afii10041
Encoding: 199 1063 139
Width: 1203
VWidth: 0
GlyphClass: 2
Flags: HW
LayerCount: 2
UndoRedoHistory
Layer: 1
Undoes
EndUndoes
Redoes
EndRedoes
EndUndoRedoHistory
Fore
SplineSet
995 997 m 1
 950 967 839 934 726 934 c 0
 555 934 564 1006 576 1091 c 2
 651 1626 l 1
 268 1626 l 1
 192 1090 l 2
 155 830 358 684 590 684 c 0
 669 684 861 700 958 734 c 1
 995 997 l 1
EndSplineSet
Refer: 372 -1 N 1 0 0 1 622 0 2
EndChar

StartChar: afii10042
Encoding: 200 1064 140
Width: 1659
VWidth: 0
GlyphClass: 2
Flags: W
DStem2: 81.9147 0 438.595 0 0.129486 0.991581<53.1164 1639.81> 633.915 0 990.595 0 0.129486 0.991581<53.1164 1639.81> 1181.91 0 1538.59 0 0.129486 0.991581<53.1164 1639.81>
LayerCount: 2
UndoRedoHistory
Layer: 1
Undoes
EndUndoes
Redoes
EndRedoes
EndUndoRedoHistory
Fore
SplineSet
264 0 m 1
 1279 0 l 1
 1318 275 l 1
 302 275 l 1
 264 0 l 1
EndSplineSet
Refer: 372 -1 N 0.93128 0 0 1 13 0 2
Refer: 372 -1 N 0.93128 0 0 1 1113 0 2
Refer: 372 -1 N 0.93128 0 0 1 565 0 2
EndChar

StartChar: afii10043
Encoding: 201 1065 141
Width: 1727
VWidth: 0
GlyphClass: 2
Flags: HW
LayerCount: 2
UndoRedoHistory
Layer: 1
Undoes
EndUndoes
Redoes
EndRedoes
EndUndoRedoHistory
Fore
SplineSet
1591 -368 m 1
 1681 275 l 1
 303 275 l 1
 264 0 l 1
 1346 0 l 1
 1294 -368 l 1
 1591 -368 l 1
EndSplineSet
Refer: 372 -1 N 0.93128 0 0 1 13 0 2
Refer: 372 -1 N 0.93128 0 0 1 1113 0 2
Refer: 372 -1 N 0.93128 0 0 1 565 0 2
EndChar

StartChar: afii10044
Encoding: 202 1066 142
Width: 1244
VWidth: 0
GlyphClass: 2
Flags: HW
LayerCount: 2
UndoRedoHistory
Layer: 1
Undoes
EndUndoes
Redoes
EndRedoes
EndUndoRedoHistory
Fore
SplineSet
190 1351 m 1
 585 1351 l 1
 624 1626 l 1
 229 1626 l 1
 190 1351 l 1
EndSplineSet
Refer: 210 -1 N 1 0 0 1 0 0 2
Refer: 372 -1 N 1 0 0 1 128 0 2
EndChar

StartChar: afii10047
Encoding: 205 1069 145
Width: 1143
VWidth: 0
GlyphClass: 2
Flags: HW
LayerCount: 2
UndoRedoHistory
Layer: 1
Undoes
EndUndoes
Redoes
EndRedoes
EndUndoRedoHistory
Fore
SplineSet
488 720 m 1
 921 720 l 1
 948 914 l 1
 515 914 l 1
 488 720 l 1
EndSplineSet
Refer: 12 67 N -1 5.55112e-17 -5.55112e-17 -1 1370 1617 2
EndChar

StartChar: afii10048
Encoding: 206 1070 146
Width: 1688
VWidth: 0
GlyphClass: 2
Flags: HW
LayerCount: 2
UndoRedoHistory
Layer: 1
Undoes
EndUndoes
Redoes
EndRedoes
EndUndoRedoHistory
Fore
SplineSet
1103 249 m 0
 1024 249 1037 343 1046 409 c 2
 1159 1209 l 2
 1168 1275 1181 1368 1260 1368 c 0
 1339 1368 1326 1275 1317 1209 c 2
 1204 409 l 2
 1195 343 1182 249 1103 249 c 0
1063 -35 m 0
 1403 -35 1535 193 1584 540 c 2
 1660 1077 l 2
 1709 1424 1640 1652 1300 1652 c 0
 961 1652 828 1424 779 1077 c 2
 704 540 l 2
 655 193 724 -35 1063 -35 c 0
399 899 m 1
 365 656 l 1
 904 656 l 1
 904 655 l 1
 938 899 l 1
 399 899 l 1
EndSplineSet
Refer: 372 -1 N 1 0 0 1 7 0 2
EndChar

StartChar: afii10049
Encoding: 207 1071 147
Width: 1200
VWidth: 0
GlyphClass: 2
Flags: HW
LayerCount: 2
UndoRedoHistory
Layer: 1
Undoes
EndUndoes
Redoes
EndRedoes
EndUndoRedoHistory
Fore
SplineSet
1083 1626 m 1
 827 1626 l 2
 577 1626 277 1572 217 1148 c 0
 173 834 348 672 625 672 c 2
 949 672 l 1
 990 963 l 1
 731 963 l 2
 587 963 556 1038 571 1144 c 0
 592 1293 661 1346 781 1346 c 2
 1044 1346 l 1
 1083 1626 l 1
441 0 m 1
 727 794 l 1
 422 898 l 1
 73 0 l 1
 441 0 l 1
EndSplineSet
Refer: 372 -1 N 1 0 0 1 619 0 2
EndChar

StartChar: afii10053
Encoding: 164 1028 148
Width: 1129
VWidth: 0
GlyphClass: 2
Flags: HW
LayerCount: 2
UndoRedoHistory
Layer: 1
Undoes
EndUndoes
Redoes
EndRedoes
EndUndoRedoHistory
Fore
SplineSet
360 723 m 1
 764 723 l 1
 793 932 l 1
 390 932 l 1
 360 723 l 1
EndSplineSet
Refer: 12 67 N 1 0 0 1 0 0 2
EndChar

StartChar: afii10066
Encoding: 209 1073 149
Width: 719
VWidth: 0
GlyphClass: 2
Flags: HW
LayerCount: 2
UndoRedoHistory
Layer: 1
Undoes
EndUndoes
Redoes
EndRedoes
EndUndoRedoHistory
Fore
SplineSet
169 291 m 2
 139 77 231 -25 362 -20 c 0
 545 -13 628 131 679 494 c 2
 703 666 l 2
 753 1025 731 1172 552 1172 c 1
 454 1171 377 1102 332 1046 c 1
 354 1205 l 2
 407 1579 563 1565 790 1688 c 1
 771 1738 l 1
 593 1625 358 1633 298 1207 c 2
 169 291 l 2
226 291 m 2
 324 991 l 1
 370 1042 456 1122 545 1122 c 0
 690 1122 694 1003 647 667 c 2
 622 490 l 2
 575 154 517 35 369 30 c 0
 256 26 202 118 226 291 c 2
EndSplineSet
EndChar

StartChar: afii10067
Encoding: 210 1074 150
Width: 1043
VWidth: 0
GlyphClass: 2
Flags: HW
LayerCount: 2
UndoRedoHistory
Layer: 1
Undoes
EndUndoes
Redoes
EndRedoes
EndUndoRedoHistory
Fore
SplineSet
335 732 m 1xf0
 306 525 l 1
 497 525 l 2
 577 525 656 528 631 348 c 0
 610 201 527 191 451 191 c 2
 259 191 l 1
 232 0 l 1
 458 0 l 2
 791 0 919 105 951 335 c 0xe8
 972 486 942 599 786 626 c 1
 902 643 977 703 1000 864 c 0
 1029 1067 945 1155 598 1155 c 2
 393 1155 l 1
 368 977 l 1
 564 977 l 2
 661 977 685 927 675 855 c 0
 665 784 617 732 549 732 c 2
 335 732 l 1xf0
EndSplineSet
Refer: 282 -1 N 1 0 0 1 -1 0 2
EndChar

StartChar: afii10068
Encoding: 211 1075 151
Width: 700
VWidth: 0
GlyphClass: 2
Flags: W
DStem2: 69 0 415 0 0.139255 0.990257<48.1822 1227.96>
LayerCount: 2
UndoRedoHistory
Layer: 1
Undoes
EndUndoes
Redoes
EndRedoes
EndUndoRedoHistory
Fore
SplineSet
764 1155 m 1
 393 1155 l 1
 362 931 l 1
 733 931 l 1
 764 1155 l 1
EndSplineSet
Refer: 282 -1 N 1 0 0 1 -1 0 2
EndChar

StartChar: afii10069
Encoding: 212 1076 152
Width: 1228
VWidth: 0
GlyphClass: 2
Flags: HW
LayerCount: 2
UndoRedoHistory
Layer: 1
Undoes
EndUndoes
Redoes
EndRedoes
EndUndoRedoHistory
Fore
SplineSet
1086 -250 m 5
 1154 236 l 5
 43 236 l 1
 -25 -250 l 1
 231 -250 l 1
 265 -12 l 1
 863 -12 l 1
 830 -250 l 1
 1086 -250 l 5
584 279 m 2
 599 388 l 1
 282 388 l 1
 273 326 l 2
 260 234 200 236 142 236 c 1
 107 -12 l 1
 347 -12 545 0 584 279 c 2
1010 920 m 1
 1043 1155 l 1
 546 1155 l 1
 513 920 l 1
 1010 920 l 1
EndSplineSet
Refer: 282 -1 N 1 0 0 0.664474 246 408 2
Refer: 282 -1 N 1 0 0 1 708 0 2
EndChar

StartChar: afii10072
Encoding: 214 1078 153
Width: 1371
VWidth: 0
GlyphClass: 2
Flags: HW
LayerCount: 2
UndoRedoHistory
Layer: 1
Undoes
EndUndoes
Redoes
EndRedoes
EndUndoRedoHistory
Fore
SplineSet
445 1155 m 1
 173 1155 l 1
 399 573 l 1
 0 0 l 1
 284 0 l 1
 584 465 l 1
 660 331 l 1
 774 465 l 1
 944 0 l 1
 1228 0 l 1
 990 573 l 1
 1380 1155 l 1
 1107 1155 l 1
 680 467 l 1
 445 1155 l 1
EndSplineSet
Refer: 282 -1 N 1 0 0 1 457 0 2
EndChar

StartChar: afii10073
Encoding: 215 1079 154
Width: 628
VWidth: 0
GlyphClass: 2
Flags: HW
LayerCount: 2
UndoRedoHistory
Layer: 1
Undoes
EndUndoes
Redoes
EndRedoes
EndUndoRedoHistory
Fore
SplineSet
459 598 m 1
 565 622 646 717 670 854 c 0
 700 1032 648 1172 483 1172 c 0
 331 1172 226 1067 200 879 c 1
 256 879 l 1
 277 1031 361 1122 476 1122 c 0
 605 1122 641 991 613 851 c 0
 587 722 526 625 362 625 c 1
 354 569 l 1
 511 569 557 454 540 305 c 0
 519 116 433 28 314 30 c 0
 188 32 153 135 175 294 c 1
 117 294 l 1
 89 98 158 -17 306 -20 c 0
 460 -23 573 100 597 305 c 0
 617 473 557 558 459 598 c 1
EndSplineSet
EndChar

StartChar: afii10074
Encoding: 216 1080 155
Width: 991
VWidth: 0
GlyphClass: 2
Flags: W
DStem2: 69.6021 0 383.978 0 0.126742 0.991936<48.1006 1225.89> 262 245 354 0 0.467247 0.884127<0 759.5> 629.602 0 943.978 0 0.126742 0.991936<48.1006 1225.89>
LayerCount: 2
UndoRedoHistory
Layer: 1
Undoes
EndUndoes
Redoes
EndRedoes
EndUndoRedoHistory
Fore
SplineSet
790 825 m 5
 692 1060 l 5
 262 245 l 1
 354 0 l 1
 790 825 l 5
EndSplineSet
Refer: 282 -1 N 0.908602 0 0 1 566 0 2
Refer: 282 -1 N 0.908602 0 0 1 6 0 2
EndChar

StartChar: afii10076
Encoding: 218 1082 157
Width: 1086
VWidth: 0
GlyphClass: 2
Flags: W
DStem2: 69 0 415 0 0.139255 0.990257<48.1822 1227.96> 746 636 484 504 0.332199 -0.943209<37.4674 563.339>
LayerCount: 2
UndoRedoHistory
Layer: 1
Undoes
EndUndoes
Redoes
EndRedoes
EndUndoRedoHistory
Fore
SplineSet
257 204 m 1
 484 504 l 1
 636 0 l 1
 970 0 l 1
 746 636 l 1
 1117 1155 l 1
 760 1155 l 1
 285 402 l 1
 257 204 l 1
EndSplineSet
Refer: 282 -1 N 1 0 0 1 -1 0 2
EndChar

StartChar: afii10077
Encoding: 219 1083 158
Width: 1061
VWidth: 0
GlyphClass: 2
Flags: HW
LayerCount: 2
UndoRedoHistory
Layer: 1
Undoes
EndUndoes
Redoes
EndRedoes
EndUndoRedoHistory
Fore
SplineSet
490 297 m 2x80
 506 408 l 1
 188 408 l 1x80
 179 343 l 2
 165 246 114 246 47 246 c 1
 12 0 l 1x40
 77 -9 133 -14 182 -14 c 0
 381 -14 458 68 490 297 c 2x80
914 926 m 1
 946 1155 l 1
 449 1155 l 1
 417 926 l 1
 914 926 l 1
EndSplineSet
Refer: 282 -1 N 1 0 0 1 595 0 2
Refer: 282 -1 N 1 0 0 0.664474 133 408 2
EndChar

StartChar: afii10078
Encoding: 220 1084 159
Width: 1147
VWidth: 0
GlyphClass: 2
Flags: HW
LayerCount: 2
UndoRedoHistory
Layer: 1
Undoes
EndUndoes
Redoes
EndRedoes
EndUndoRedoHistory
Fore
SplineSet
582 139 m 1
 956 920 l 1
 859 1155 l 1
 603 625 l 1
 497 1155 l 1
 333 920 l 1
 488 139 l 1
 582 139 l 1
EndSplineSet
Refer: 282 -1 N 0.849462 0 0 1 11 0 2
Refer: 282 -1 N 0.849462 0 0 1 748 0 2
EndChar

StartChar: afii10079
Encoding: 221 1085 160
Width: 1016
VWidth: 0
GlyphClass: 2
Flags: W
DStem2: 69 0 415 0 0.139255 0.990257<48.1822 1227.96> 615 0 961 0 0.139255 0.990257<48.1822 1227.96>
LayerCount: 2
UndoRedoHistory
Layer: 1
Undoes
EndUndoes
Redoes
EndRedoes
EndUndoRedoHistory
Fore
SplineSet
325 716 m 1
 292 477 l 1
 755 477 l 1
 789 716 l 1
 325 716 l 1
EndSplineSet
Refer: 282 -1 N 1 0 0 1 -1 0 2
Refer: 282 -1 N 1 0 0 1 545 0 2
EndChar

StartChar: afii10085
Encoding: -1 1091 162
Width: 860
VWidth: 0
Flags: W
LayerCount: 2
Fore
SplineSet
232 91 m 2
 267 -81 233 -137 3 -137 c 1
 38 -426 l 1
 484 -426 560 -312 620 0 c 2
 856 1217 l 1
 513 1217 l 1
 438 496 l 1
 346 1217 l 1
 4 1217 l 1
 232 91 l 2
EndSplineSet
EndChar

StartChar: afii10088
Encoding: 230 1094 164
Width: 1033
VWidth: 0
GlyphClass: 2
Flags: HW
LayerCount: 2
UndoRedoHistory
Layer: 1
Undoes
EndUndoes
Redoes
EndRedoes
EndUndoRedoHistory
Fore
SplineSet
891 -250 m 1
 958 227 l 1
 261 227 l 1
 227 -10 l 1
 686 -10 l 1
 652 -250 l 1
 891 -250 l 1
EndSplineSet
Refer: 282 -1 N 1 0 0 1 514 0 2
Refer: 282 -1 N 1 0 0 1 -1 0 2
EndChar

StartChar: afii10089
Encoding: 231 1095 165
Width: 943
VWidth: 0
GlyphClass: 2
Flags: HW
LayerCount: 2
UndoRedoHistory
Layer: 1
Undoes
EndUndoes
Redoes
EndRedoes
EndUndoRedoHistory
Fore
SplineSet
148 798 m 2
 131 675 153 486 457 486 c 0
 524 486 605 496 703 518 c 1
 728 699 l 1
 661 691 610 685 571 685 c 0
 476 685 454 716 466 802 c 2
 516 1155 l 1
 198 1155 l 1
 148 798 l 2
EndSplineSet
Refer: 282 -1 N 1 0 0 1 469 0 2
EndChar

StartChar: afii10091
Encoding: 233 1097 167
Width: 1551
VWidth: 0
GlyphClass: 2
Flags: HW
LayerCount: 2
UndoRedoHistory
Layer: 1
Undoes
EndUndoes
Redoes
EndRedoes
EndUndoRedoHistory
Fore
SplineSet
1354 -250 m 5
 1421 227 l 5
 250 227 l 5
 216 -10 l 5
 1148 -10 l 5
 1115 -250 l 5
 1354 -250 l 5
EndSplineSet
Refer: 282 -1 N 0.972805 0 0 1 988 0 2
Refer: 282 -1 N 0.972805 0 0 1 1 0 2
Refer: 282 -1 N 0.972805 0 0 1 495 0 2
EndChar

StartChar: afii10092
Encoding: 234 1098 168
Width: 1134
VWidth: 0
GlyphClass: 2
Flags: HW
LayerCount: 2
UndoRedoHistory
Layer: 1
Undoes
EndUndoes
Redoes
EndRedoes
EndUndoRedoHistory
Fore
SplineSet
499 939 m 1
 530 1155 l 1
 183 1155 l 1
 153 939 l 1
 499 939 l 1
EndSplineSet
Refer: 282 -1 N 1 0 0 1 165 0 2
Refer: 209 -1 N 1 0 0 1 169 0 2
EndChar

StartChar: afii10095
Encoding: 237 1101 171
Width: 928
VWidth: 0
GlyphClass: 2
Flags: HW
LayerCount: 2
UndoRedoHistory
Layer: 1
Undoes
EndUndoes
Redoes
EndRedoes
EndUndoRedoHistory
Fore
SplineSet
711 645 m 1
 403 645 l 1
 389 547 l 1
 697 547 l 1
 711 645 l 1
EndSplineSet
Refer: 195 99 N -1 0 0 -1 1136 1215 2
EndChar

StartChar: afii10096
Encoding: 238 1102 172
Width: 1402
VWidth: 0
GlyphClass: 2
Flags: HW
LayerCount: 2
UndoRedoHistory
Layer: 1
Undoes
EndUndoes
Redoes
EndRedoes
EndUndoRedoHistory
Fore
SplineSet
320 704 m 1
 283 443 l 1
 695 443 l 1
 695 442 l 1
 732 704 l 1
 320 704 l 1
EndSplineSet
Refer: 301 111 N 0.961665 0 0 1 515 0 2
Refer: 282 -1 N 1 0 0 1 -1 0 2
EndChar

StartChar: afii10097
Encoding: 239 1103 173
Width: 971
VWidth: 0
GlyphClass: 2
Flags: HW
LayerCount: 2
UndoRedoHistory
Layer: 1
Undoes
EndUndoes
Redoes
EndRedoes
EndUndoRedoHistory
Fore
SplineSet
286 670 m 1
 45 0 l 1
 347 0 l 1
 538 577 l 1
 286 670 l 1
EndSplineSet
Refer: 209 -1 N -1 1.11022e-16 -1.11022e-16 -1 1206 1216 2
Refer: 282 -1 N 1 0 0 1 498 0 2
EndChar

StartChar: afii10101
Encoding: 244 1108 174
Width: 908
VWidth: 0
GlyphClass: 2
Flags: HW
LayerCount: 2
UndoRedoHistory
Layer: 1
Undoes
EndUndoes
Redoes
EndRedoes
EndUndoRedoHistory
Fore
SplineSet
616 645 m 1
 308 645 l 1
 295 547 l 1
 602 547 l 1
 616 645 l 1
EndSplineSet
Refer: 195 99 N 1 0 0 1 6 0 2
EndChar

StartChar: ampersand
Encoding: 38 38 177
Width: 1040
VWidth: 0
GlyphClass: 2
Flags: HW
LayerCount: 2
UndoRedoHistory
Layer: 1
Undoes
EndUndoes
Redoes
EndRedoes
EndUndoRedoHistory
Fore
SplineSet
902 -35 m 0xe0
 925 -35 946 -30 968 -24 c 1
 1003 222 l 1
 957 228 912 253 894 283 c 1
 984 436 1038 564 1076 834 c 1
 865 834 l 1xe4
 850 728 803 537 764 483 c 1
 651 838 l 1
 773 965 937 1083 970 1318 c 0
 1002 1548 871 1686 672 1686 c 0
 468 1686 321 1515 293 1316 c 0xd8
 273 1175 338 1058 386 900 c 1
 253 774 122 560 95 366 c 0
 62 134 193 -29 400 -29 c 0
 504 -29 612 15 691 104 c 1
 744 47 813 -35 902 -35 c 0xe0
440 209 m 0
 397 209 341 275 358 399 c 0xe0
 368 467 399 552 467 653 c 1xd0
 481 594 566 265 566 265 c 1
 521 210 477 209 440 209 c 0
586 1033 m 1
 587 1083 552 1250 564 1337 c 0
 573 1402 615 1433 654 1433 c 0
 694 1433 729 1400 721 1340 c 0xd8
 709 1255 615 1094 586 1033 c 1
EndSplineSet
EndChar

StartChar: asciicircum
Encoding: 94 94 180
Width: 884
VWidth: 0
GlyphClass: 2
Flags: HW
LayerCount: 2
UndoRedoHistory
Layer: 1
Undoes
EndUndoes
Redoes
EndRedoes
EndUndoRedoHistory
Fore
SplineSet
177 821 m 1
 461 821 l 1
 593 1148 l 1
 636 821 l 1
 921 821 l 1
 769 1474 l 1
 511 1474 l 1
 177 821 l 1
EndSplineSet
EndChar

StartChar: asciitilde
Encoding: 126 126 181
Width: 933
VWidth: 0
GlyphClass: 2
Flags: HW
LayerCount: 2
UndoRedoHistory
Layer: 1
Undoes
EndUndoes
Redoes
EndRedoes
EndUndoRedoHistory
Fore
SplineSet
725 660 m 0x80
 857 660 945 814 973 1010 c 0
 974 1014 974 1018 975 1022 c 1
 800 1022 l 1
 772 941 744 913 714 913 c 0x80
 651 913 576 1032 464 1032 c 0
 326 1032 224 866 198 679 c 0
 198 677 197 674 197 672 c 1
 373 672 l 1
 402 749 433 775 465 775 c 0x40
 533 775 612 660 725 660 c 0x80
EndSplineSet
EndChar

StartChar: asterisk
Encoding: 42 42 182
Width: 817
VWidth: 0
GlyphClass: 2
Flags: HW
LayerCount: 2
UndoRedoHistory
Layer: 1
Undoes
EndUndoes
Redoes
EndRedoes
EndUndoRedoHistory
Fore
SplineSet
444 752 m 1
 559 956 l 1
 618 752 l 1
 841 882 l 1
 734 1081 l 1
 945 1163 l 1
 900 1385 l 1
 710 1277 l 1
 765 1501 l 1
 507 1501 l 1
 501 1279 l 1
 340 1384 l 1
 233 1165 l 1
 419 1083 l 1
 259 881 l 1
 444 752 l 1
EndSplineSet
EndChar

StartChar: at
Encoding: 64 64 183
Width: 1578
VWidth: 0
GlyphClass: 2
Flags: HW
LayerCount: 2
UndoRedoHistory
Layer: 1
Undoes
EndUndoes
Redoes
EndRedoes
EndUndoRedoHistory
Fore
SplineSet
856 -64 m 0
 991 -64 1138 -35 1268 -5 c 1
 1243 193 l 1
 1144 156 974 129 889 129 c 0
 417 129 303 418 380 857 c 0
 436 1174 605 1472 1011 1472 c 0
 1399 1472 1520 1240 1465 850 c 0
 1436 645 1318 502 1242 538 c 0
 1209 554 1231 681 1236 715 c 2
 1317 1291 l 1
 1064 1291 l 1
 1043 1145 l 1
 1034 1185 1016 1300 915 1300 c 0
 632 1300 532 960 517 765 c 0
 499 531 614 351 814 369 c 0
 880 375 950 414 982 475 c 1
 1017 383 1126 350 1219 350 c 0
 1520 350 1648 649 1676 846 c 0
 1744 1327 1544 1659 1039 1659 c 0
 545 1659 242 1308 167 855 c 0
 75 300 299 -64 856 -64 c 0
888 584 m 1
 802 584 776 668 780 764 c 0
 785 885 839 1056 976 1056 c 0
 990 1056 1030 1049 1026 1024 c 2
 965 588 l 1
 949 575 881 584 888 584 c 1
EndSplineSet
EndChar

StartChar: backslash
Encoding: 92 92 186
Width: 535
VWidth: 0
GlyphClass: 2
Flags: HW
LayerCount: 2
UndoRedoHistory
Layer: 1
Undoes
EndUndoes
Redoes
EndRedoes
EndUndoRedoHistory
Fore
SplineSet
204 0 m 5
 498 0 l 5
 562 1637 l 1
 268 1637 l 1
 204 0 l 5
EndSplineSet
EndChar

StartChar: bar
Encoding: 124 124 187
Width: 509
VWidth: 0
GlyphClass: 2
Flags: HW
LayerCount: 2
UndoRedoHistory
Layer: 1
Undoes
EndUndoes
Redoes
EndRedoes
EndUndoRedoHistory
Fore
SplineSet
90 -187 m 1
 366 -187 l 1
 623 1638 l 1
 347 1638 l 1
 90 -187 l 1
EndSplineSet
EndChar

StartChar: braceleft
Encoding: 123 123 188
Width: 723
VWidth: 0
GlyphClass: 2
Flags: HW
LayerCount: 2
UndoRedoHistory
Layer: 1
Undoes
EndUndoes
Redoes
EndRedoes
EndUndoRedoHistory
Fore
SplineSet
197 908 m 5
 335 908 347 1068 365 1194 c 4
 412 1530 529 1702 890 1702 c 5
 874 1459 l 5
 703 1461 690 1291 670 1152 c 5
 636 910 604 811 466 773 c 5
 594 735 597 636 563 394 c 5
 543 255 510 85 681 87 c 5
 628 -156 l 5
 267 -156 200 16 247 352 c 4
 265 478 305 638 159 638 c 5
 197 908 l 5
EndSplineSet
EndChar

StartChar: braceright
Encoding: 125 125 189
Width: 723
VWidth: 0
GlyphClass: 2
Flags: HW
LayerCount: 2
UndoRedoHistory
Layer: 1
Undoes
EndUndoes
Redoes
EndRedoes
EndUndoRedoHistory
Fore
SplineSet
797 908 m 1
 659 908 690 1068 708 1194 c 0
 755 1530 688 1702 327 1702 c 1
 274 1459 l 1
 445 1461 412 1291 392 1152 c 1
 358 910 361 811 489 773 c 1
 351 735 319 636 285 394 c 1
 265 255 252 85 81 87 c 1
 66 -156 l 1
 427 -156 543 16 590 352 c 0
 608 478 613 638 759 638 c 1
 797 908 l 1
EndSplineSet
EndChar

StartChar: bracketleft
Encoding: 91 91 190
Width: 751
VWidth: 0
GlyphClass: 2
Flags: HW
LayerCount: 2
UndoRedoHistory
Layer: 1
Undoes
EndUndoes
Redoes
EndRedoes
EndUndoRedoHistory
Fore
SplineSet
122 -58 m 1
 660 -58 l 1
 684 115 l 1
 436 115 l 1
 644 1594 l 1
 892 1594 l 1
 916 1767 l 1
 378 1767 l 1
 122 -58 l 1
EndSplineSet
EndChar

StartChar: bracketright
Encoding: 93 93 191
Width: 686
VWidth: 0
GlyphClass: 2
Flags: HW
LayerCount: 2
UndoRedoHistory
Layer: 1
Undoes
EndUndoes
Redoes
EndRedoes
EndUndoRedoHistory
Fore
SplineSet
72 -58 m 1
 568 -58 l 1
 815 1701 l 1
 319 1701 l 1
 300 1567 l 1
 543 1567 l 1
 333 76 l 1
 91 76 l 1
 72 -58 l 1
EndSplineSet
EndChar

StartChar: breve
Encoding: 365 728 192
Width: 601
VWidth: 0
GlyphClass: 2
Flags: W
HStem: 1344 118<433.28 557.461>
VStem: 260 168<1464.11 1559> 576 166<1477.73 1559>
LayerCount: 2
UndoRedoHistory
Layer: 1
Undoes
EndUndoes
Redoes
EndRedoes
EndUndoRedoHistory
Fore
SplineSet
472 1344 m 0
 606 1344 727 1451 742 1554 c 0
 742 1556 743 1557 743 1559 c 1
 576 1559 l 1
 567 1495 525 1462 488 1462 c 0
 451 1462 419 1494 428 1559 c 1
 261 1559 l 1
 261 1557 260 1556 260 1554 c 0
 245 1451 338 1344 472 1344 c 0
EndSplineSet
EndChar

StartChar: brokenbar
Encoding: 366 166 193
Width: 379
VWidth: 0
GlyphClass: 2
Flags: HW
LayerCount: 2
UndoRedoHistory
Layer: 1
Undoes
EndUndoes
Redoes
EndRedoes
EndUndoRedoHistory
Fore
SplineSet
39 -194 m 1
 273 -194 l 1
 388 630 l 1
 155 630 l 1
 39 -194 l 1
181 814 m 1
 414 814 l 1
 530 1638 l 1
 297 1638 l 1
 181 814 l 1
EndSplineSet
EndChar

StartChar: bullet
Encoding: 367 8226 194
Width: 980
VWidth: 0
GlyphClass: 2
Flags: HW
LayerCount: 2
UndoRedoHistory
Layer: 1
Undoes
EndUndoes
Redoes
EndRedoes
EndUndoRedoHistory
Fore
SplineSet
515 202 m 0
 699 202 920 342 960 626 c 0
 1000 913 820 1057 635 1057 c 0
 452 1057 234 918 193 626 c 0
 153 341 331 202 515 202 c 0
EndSplineSet
EndChar

StartChar: c
Encoding: 99 99 195
Width: 858
VWidth: 0
GlyphClass: 2
Flags: W
HStem: -27 263<314.593 515.575> 981 263<519.63 715.62>
DStem2: 95 344 426 332 0.139666 0.990199<-53.5598 687.998> 527 324 851 326 0.139228 0.99026<-86.2526 168.576 471.214 650.289>
LayerCount: 2
UndoRedoHistory
Layer: 1
Undoes
EndUndoes
Redoes
EndRedoes
EndUndoRedoHistory
Fore
SplineSet
425 -27 m 4
 644 -27 818 89 851 326 c 6
 874 491 l 5
 550 491 l 5
 527 324 l 6
 516 247 488 236 461 236 c 4
 435 236 416 258 426 332 c 6
 504 885 l 6
 514 959 540 981 566 981 c 4
 593 981 618 970 607 893 c 6
 586 746 l 5
 910 746 l 5
 930 891 l 6
 963 1128 822 1244 603 1244 c 4
 383 1244 202 1109 169 873 c 6
 95 344 l 6
 62 108 205 -27 425 -27 c 4
EndSplineSet
EndChar

StartChar: caron
Encoding: 369 711 197
Width: 804
VWidth: 0
GlyphClass: 2
Flags: W
HStem: 1271 389
LayerCount: 2
UndoRedoHistory
Layer: 1
Undoes
EndUndoes
Redoes
EndRedoes
EndUndoRedoHistory
Fore
SplineSet
411 1271 m 1
 741 1271 l 1
 966 1660 l 1
 725 1660 l 1
 601 1443 l 5
 542 1660 l 1
 302 1660 l 1
 411 1271 l 1
EndSplineSet
EndChar

StartChar: cedilla
Encoding: 374 184 202
Width: 537
VWidth: 0
GlyphClass: 2
Flags: W
LayerCount: 2
UndoRedoHistory
Layer: 1
Undoes
EndUndoes
Redoes
EndRedoes
EndUndoRedoHistory
Fore
SplineSet
35 -571 m 1
 214 -632 480 -589 512 -359 c 0
 530 -230 422 -142 265 -142 c 1
 285 0 l 1
 168 0 l 1
 131 -260 l 1
 201 -260 306 -292 294 -378 c 0
 284 -451 113 -434 57 -416 c 1
 35 -571 l 1
EndSplineSet
EndChar

StartChar: cent
Encoding: 375 162 203
Width: 949
VWidth: 0
GlyphClass: 2
Flags: HW
LayerCount: 2
UndoRedoHistory
Layer: 1
Undoes
EndUndoes
Redoes
EndRedoes
EndUndoRedoHistory
Fore
SplineSet
650 1160 m 1
 695 1479 l 1
 611 1479 l 1
 566 1160 l 1
 650 1160 l 1
403 5 m 1
 358 -317 l 1
 443 -317 l 1
 488 5 l 1
 403 5 l 1
EndSplineSet
Refer: 195 99 N 1 0 0 1 0 0 2
EndChar

StartChar: circumflex
Encoding: 376 710 204
Width: 811
VWidth: 0
GlyphClass: 2
Flags: W
HStem: 1247 405
LayerCount: 2
UndoRedoHistory
Layer: 1
Undoes
EndUndoes
Redoes
EndRedoes
EndUndoRedoHistory
Fore
SplineSet
268 1247 m 1
 519 1247 l 1
 625 1491 l 5
 663 1247 l 1
 915 1247 l 1
 780 1652 l 1
 510 1652 l 1
 268 1247 l 1
EndSplineSet
EndChar

StartChar: colon
Encoding: 58 58 205
Width: 463
VWidth: 0
GlyphClass: 2
Flags: HW
LayerCount: 2
UndoRedoHistory
Layer: 1
Undoes
EndUndoes
Redoes
EndRedoes
EndUndoRedoHistory
Fore
SplineSet
84 86 m 1
 402 86 l 1
 450 424 l 1
 131 424 l 1
 84 86 l 1
190 841 m 1
 508 841 l 1
 556 1179 l 1
 238 1179 l 1
 190 841 l 1
EndSplineSet
EndChar

StartChar: comma
Encoding: 44 44 206
Width: 422
VWidth: 0
GlyphClass: 2
Flags: W
HStem: -291 111<54 152.635>
LayerCount: 2
UndoRedoHistory
Layer: 1
Undoes
EndUndoes
Redoes
EndRedoes
EndUndoRedoHistory
Fore
SplineSet
52 -291 m 5
 232 -289 339 -167 371 55 c 6
 412 341 l 5
 91 341 l 5
 43 0 l 5
 223 0 l 5
 205 -130 123 -164 54 -180 c 5
 52 -291 l 5
EndSplineSet
EndChar

StartChar: copyright
Encoding: 377 169 207
Width: 1706
VWidth: 0
GlyphClass: 2
Flags: HW
LayerCount: 2
UndoRedoHistory
Layer: 1
Undoes
EndUndoes
Redoes
EndRedoes
EndUndoRedoHistory
Fore
SplineSet
798 26 m 0
 322 26 169 416 225 814 c 0
 281 1213 543 1598 1019 1598 c 0
 1493 1598 1647 1213 1591 814 c 0
 1535 416 1272 26 798 26 c 0
791 -22 m 0
 1316 -22 1589 410 1645 812 c 0
 1701 1214 1550 1646 1026 1646 c 0
 501 1646 226 1214 170 812 c 0
 114 411 266 -22 791 -22 c 0
EndSplineSet
Refer: 195 99 N 1.0747 0 0 1.0747 348 159 2
EndChar

StartChar: currency
Encoding: 378 164 208
Width: 887
VWidth: 0
GlyphClass: 2
Flags: HW
LayerCount: 2
UndoRedoHistory
Layer: 1
Undoes
EndUndoes
Redoes
EndRedoes
EndUndoRedoHistory
Fore
SplineSet
250 574 m 1
 335 636 l 1
 379 599 439 577 525 577 c 0
 608 577 673 598 726 633 c 1
 790 574 l 1
 893 675 l 1
 828 733 l 1
 858 790 874 849 883 911 c 0
 892 972 891 1031 875 1086 c 1
 959 1148 l 1
 885 1250 l 1
 802 1188 l 1
 758 1222 700 1243 618 1243 c 0
 533 1243 466 1220 413 1184 c 1
 345 1250 l 1
 242 1148 l 1
 311 1084 l 1
 283 1027 267 969 259 911 c 0
 251 852 248 794 259 738 c 1
 176 675 l 1
 250 574 l 1
551 760 m 1
 477 758 442 832 453 911 c 0
 464 987 505 1061 592 1058 c 1
 680 1061 702 985 691 910 c 0
 680 834 637 758 551 760 c 1
EndSplineSet
EndChar

StartChar: cyrillic_lc_right_bowl
Encoding: 379 -1 209
Width: 14
VWidth: 0
Flags: W
HStem: 0 211<442 607.082> 493 220<482 637.003>
LayerCount: 2
UndoRedoHistory
Layer: 1
Undoes
EndUndoes
Redoes
EndRedoes
EndUndoRedoHistory
Fore
SplineSet
341 713 m 1
 310 493 l 1
 482 493 l 2
 602 493 676 467 659 343 c 0
 645 245 571 211 442 211 c 2
 271 211 l 1
 241 0 l 1
 450 0 l 2
 785 0 940 102 974 346 c 0
 1013 627 847 713 542 713 c 2
 341 713 l 1
EndSplineSet
EndChar

StartChar: cyrillic_uc_right_bowl
Encoding: 380 -1 210
Width: 15
VWidth: 0
Flags: W
HStem: 0 267<616 754.911>
LayerCount: 2
UndoRedoHistory
Layer: 1
Undoes
EndUndoes
Redoes
EndRedoes
EndUndoRedoHistory
Fore
SplineSet
532 954 m 1
 492 671 l 1
 710 671 l 2
 821 671 828 574 819 487 c 0
 806 354 764 267 657 267 c 2
 435 267 l 1
 398 0 l 1
 616 0 l 2
 866 0 1111 54 1171 478 c 0
 1215 792 1073 954 796 954 c 2
 532 954 l 1
EndSplineSet
EndChar

StartChar: dagger
Encoding: 381 8224 212
Width: 740
VWidth: 0
GlyphClass: 2
Flags: HW
LayerCount: 2
UndoRedoHistory
Layer: 1
Undoes
EndUndoes
Redoes
EndRedoes
EndUndoRedoHistory
Fore
SplineSet
235 0 m 1
 500 0 l 1
 615 814 l 1
 763 814 l 1
 804 1112 l 1
 657 1112 l 1
 699 1413 l 1
 434 1413 l 1
 392 1112 l 1
 243 1112 l 1
 201 814 l 1
 350 814 l 1
 235 0 l 1
EndSplineSet
EndChar

StartChar: daggerdbl
Encoding: 382 8225 213
Width: 740
VWidth: 0
GlyphClass: 2
Flags: HW
LayerCount: 2
UndoRedoHistory
Layer: 1
Undoes
EndUndoes
Redoes
EndRedoes
EndUndoRedoHistory
Fore
SplineSet
235 0 m 1
 500 0 l 1
 557 403 l 1
 705 403 l 1
 732 596 l 1
 584 596 l 1
 627 899 l 1
 775 899 l 1
 804 1107 l 1
 656 1107 l 1
 699 1413 l 1
 434 1413 l 1
 391 1107 l 1
 237 1107 l 1
 207 899 l 1
 362 899 l 1
 319 596 l 1
 165 596 l 1
 138 403 l 1
 292 403 l 1
 235 0 l 1
EndSplineSet
EndChar

StartChar: dcroat
Encoding: 384 273 215
Width: 925
VWidth: 0
GlyphClass: 2
Flags: HW
LayerCount: 2
UndoRedoHistory
Layer: 1
Undoes
EndUndoes
Redoes
EndRedoes
EndUndoRedoHistory
Fore
SplineSet
464 1519 m 5
 441 1358 l 5
 1083 1358 l 5
 1106 1519 l 5
 464 1519 l 5
EndSplineSet
Refer: 211 100 N 1 0 0 1 0 0 2
EndChar

StartChar: degree
Encoding: 385 176 216
Width: 1078
VWidth: 0
GlyphClass: 2
Flags: HW
LayerCount: 2
UndoRedoHistory
Layer: 1
Undoes
EndUndoes
Redoes
EndRedoes
EndUndoRedoHistory
Fore
SplineSet
684 1089 m 0
 583 1089 532 1180 548 1295 c 0
 564 1412 641 1498 742 1498 c 0
 846 1498 894 1410 878 1294 c 0
 862 1179 787 1089 684 1089 c 0
652 858 m 0
 896 858 1080 1019 1119 1295 c 0
 1158 1572 1015 1730 774 1730 c 0
 534 1730 348 1572 309 1295 c 0
 270 1020 411 858 652 858 c 0
EndSplineSet
EndChar

StartChar: dieresis
Encoding: 386 168 217
Width: 821
VWidth: 0
GlyphClass: 2
Flags: W
HStem: 1385 328
LayerCount: 2
UndoRedoHistory
Layer: 1
Undoes
EndUndoes
Redoes
EndRedoes
EndUndoRedoHistory
Fore
SplineSet
696 1385 m 1
 957 1385 l 1
 1003 1713 l 1
 742 1713 l 1
 696 1385 l 1
254 1385 m 1
 515 1385 l 1
 561 1713 l 1
 300 1713 l 1
 254 1385 l 1
EndSplineSet
EndChar

StartChar: divide
Encoding: 387 247 218
Width: 686
VWidth: 0
GlyphClass: 2
Flags: HW
LayerCount: 2
UndoRedoHistory
Layer: 1
Undoes
EndUndoes
Redoes
EndRedoes
EndUndoRedoHistory
Fore
SplineSet
263 229 m 1
 522 229 l 1
 559 491 l 1
 300 491 l 1
 263 229 l 1
95 587 m 1
 757 587 l 1
 783 771 l 1
 121 771 l 1
 95 587 l 1
353 866 m 1
 612 866 l 1
 649 1128 l 1
 389 1128 l 1
 353 866 l 1
EndSplineSet
EndChar

StartChar: dollar
Encoding: 36 36 219
Width: 1026
VWidth: 0
GlyphClass: 2
Flags: HW
LayerCount: 2
UndoRedoHistory
Layer: 1
Undoes
EndUndoes
Redoes
EndRedoes
EndUndoRedoHistory
Fore
SplineSet
460 -75 m 1
 544 -75 l 1
 567 89 l 1
 773 100 972 258 1002 472 c 0
 1040 740 954 836 783 989 c 1
 742 1021 l 1
 679 1075 625 1124 640 1228 c 0
 642 1243 650 1311 696 1311 c 0
 761 1311 735 1241 714 1200 c 1
 708 1169 700 1141 696 1126 c 1
 1104 1174 l 1
 1104 1168 1114 1221 1114 1215 c 1
 1160 1437 1006 1615 782 1621 c 1
 809 1811 l 1
 725 1811 l 1
 698 1616 l 1
 465 1587 292 1435 256 1179 c 0
 221 930 349 817 464 707 c 1
 487 683 l 1
 555 617 638 578 622 467 c 0
 621 457 637 402 588 402 c 1
 496 400 539 541 557 590 c 1
 557 584 566 640 565 634 c 1
 165 560 l 1
 117 312 195 114 483 90 c 1
 460 -75 l 1
EndSplineSet
EndChar

StartChar: dotaccent
Encoding: 388 729 220
Width: 541
VWidth: 0
GlyphClass: 2
Flags: W
HStem: 1396 341
LayerCount: 2
UndoRedoHistory
Layer: 1
Undoes
EndUndoes
Redoes
EndRedoes
EndUndoRedoHistory
Fore
SplineSet
328 1396 m 1
 649 1396 l 1
 697 1737 l 1
 376 1737 l 1
 328 1396 l 1
EndSplineSet
EndChar

StartChar: dotlessi
Encoding: 389 305 221
Width: 481
VWidth: 0
GlyphClass: 2
Flags: W
DStem2: 69 0 406 0 0.139622 0.990205<47.0527 1167.44>
LayerCount: 2
UndoRedoHistory
Layer: 1
Undoes
EndUndoes
Redoes
EndRedoes
EndUndoRedoHistory
Fore
SplineSet
69 0 m 1
 406 0 l 1
 568 1156 l 1
 232 1156 l 1
 69 0 l 1
EndSplineSet
EndChar

StartChar: e
Encoding: 101 101 222
Width: 862
VWidth: 0
GlyphClass: 2
Flags: W
HStem: -27 263<317.401 530.346> 920 263<509.076 613.088>
LayerCount: 2
UndoRedoHistory
Layer: 1
Undoes
EndUndoes
Redoes
EndRedoes
EndUndoRedoHistory
Fore
SplineSet
430 -27 m 0
 649 -27 822 84 854 312 c 2
 873 450 l 1
 560 450 l 1
 541 317 l 2
 531 246 493 236 466 236 c 0
 440 236 415 256 425 324 c 2
 496 832 l 2
 506 900 537 920 563 920 c 0
 590 920 625 910 615 839 c 2
 572 534 l 1
 885 534 l 1
 929 848 l 2
 961 1073 819 1183 600 1183 c 0
 381 1183 201 1055 169 830 c 2
 98 326 l 2
 66 101 211 -27 430 -27 c 0
333 718 m 1
 307 534 l 1
 726 534 l 1
 752 718 l 1
 333 718 l 1
EndSplineSet
EndChar

StartChar: eight
Encoding: 56 56 229
Width: 990
VWidth: 0
GlyphClass: 2
Flags: HW
LayerCount: 2
UndoRedoHistory
Layer: 1
Undoes
EndUndoes
Redoes
EndRedoes
EndUndoRedoHistory
Fore
SplineSet
491 -30 m 0xf0
 819 -30 967 180 1002 490 c 0xf2
 1019 637 991 794 877 854 c 1
 957 908 1040 1021 1071 1205 c 0
 1118 1488 999 1652 728 1652 c 0
 459 1652 288 1491 255 1205 c 0xec
 234 1021 288 910 352 854 c 1
 220 794 151 636 128 490 c 0
 80 182 166 -30 491 -30 c 0xf0
530 248 m 0
 444 248 466 387 476 456 c 0
 492 573 505 691 592 691 c 0
 680 691 660 573 643 456 c 0
 634 389 616 248 530 248 c 0
633 983 m 0
 585 983 564 1040 589 1216 c 0
 603 1319 640 1368 688 1368 c 0
 733 1368 755 1319 740 1215 c 0xec
 715 1040 676 983 633 983 c 0
EndSplineSet
EndChar

StartChar: endash
Encoding: 398 8211 232
Width: 952
VWidth: 0
GlyphClass: 2
Flags: HW
LayerCount: 2
UndoRedoHistory
Layer: 1
Undoes
EndUndoes
Redoes
EndRedoes
EndUndoRedoHistory
Fore
SplineSet
58 410 m 1
 1010 410 l 1
 1044 653 l 1
 92 653 l 1
 58 410 l 1
EndSplineSet
EndChar

StartChar: eng
Encoding: 399 331 233
Width: 990
VWidth: 0
GlyphClass: 2
Flags: HW
LayerCount: 2
UndoRedoHistory
Layer: 1
Undoes
EndUndoes
Redoes
EndRedoes
EndUndoRedoHistory
Fore
SplineSet
261 -406 m 5
 433 -406 l 6
 706 -406 783 -307 823 -21 c 6
 825 -9 l 1
 507 -9 l 1
 506 -18 l 6
 490 -131 444 -172 295 -169 c 5
 261 -406 l 5
EndSplineSet
Refer: 294 110 N 1 0 0 1 0 0 2
EndChar

StartChar: equal
Encoding: 61 61 235
Width: 639
VWidth: 0
GlyphClass: 2
Flags: HW
LayerCount: 2
UndoRedoHistory
Layer: 1
Undoes
EndUndoes
Redoes
EndRedoes
EndUndoRedoHistory
Fore
SplineSet
110 471 m 1
 662 471 l 1
 692 685 l 1
 140 685 l 1
 110 471 l 1
164 857 m 1
 717 857 l 1
 747 1071 l 1
 194 1071 l 1
 164 857 l 1
EndSplineSet
EndChar

StartChar: eth
Encoding: 401 240 236
Width: 990
VWidth: 0
GlyphClass: 2
Flags: HW
LayerCount: 2
UndoRedoHistory
Layer: 1
Undoes
EndUndoes
Redoes
EndRedoes
EndUndoRedoHistory
Fore
SplineSet
637 1129 m 1
 968 1129 l 1
 997 1336 971 1458 937 1534 c 1
 1079 1641 l 1
 1042 1734 l 1
 898 1626 l 1
 835 1713 769 1772 560 1766 c 1
 462 1477 l 1
 583 1471 598 1444 605 1425 c 1
 479 1328 l 1
 516 1242 l 1
 632 1331 l 1
 646 1305 651 1232 637 1129 c 1
EndSplineSet
Refer: 279 -1 N 1 0 0 1 -301 0 2
Refer: 282 -1 N 1 0 0 1 483 0 2
EndChar

StartChar: exclam
Encoding: 33 33 237
Width: 468
VWidth: 0
GlyphClass: 2
Flags: HW
LayerCount: 2
UndoRedoHistory
Layer: 1
Undoes
EndUndoes
Redoes
EndRedoes
EndUndoRedoHistory
Fore
SplineSet
62 0 m 1
 384 0 l 1
 431 340 l 1
 110 340 l 1
 62 0 l 1
229 446 m 1
 349 446 l 1
 645 1652 l 1
 301 1652 l 1
 229 446 l 1
EndSplineSet
EndChar

StartChar: exclamdown
Encoding: 402 161 238
Width: 468
VWidth: 0
GlyphClass: 2
Flags: HW
LayerCount: 2
UndoRedoHistory
Layer: 1
Undoes
EndUndoes
Redoes
EndRedoes
EndUndoRedoHistory
Fore
SplineSet
-7 -507 m 1
 336 -507 l 1
 409 699 l 1
 289 699 l 1
 -7 -507 l 1
207 805 m 1
 527 805 l 1
 575 1146 l 1
 254 1146 l 1
 207 805 l 1
EndSplineSet
EndChar

StartChar: f
Encoding: 102 102 239
Width: 571
VWidth: 0
GlyphClass: 2
Flags: W
HStem: 1348 277<626.722 752.091>
DStem2: 106 0 437 0 0.139042 0.990287<46.0228 967.326 1273.85 1403.74>
LayerCount: 2
UndoRedoHistory
Layer: 1
Undoes
EndUndoes
Redoes
EndRedoes
EndUndoRedoHistory
Fore
SplineSet
749 1339 m 1
 788 1615 l 1
 734 1622 687 1625 644 1625 c 0
 368 1625 315 1486 286 1282 c 2
 276 1216 l 1
 185 1216 l 1
 148 958 l 1
 240 958 l 1
 106 0 l 1
 437 0 l 1
 571 958 l 1
 696 958 l 1
 732 1216 l 1
 607 1216 l 1
 616 1278 l 2
 624 1334 657 1348 691 1348 c 0
 712 1348 733 1342 749 1339 c 1
EndSplineSet
EndChar

StartChar: five
Encoding: 53 53 240
Width: 991
VWidth: 0
GlyphClass: 2
Flags: HW
LayerCount: 2
UndoRedoHistory
Layer: 1
Undoes
EndUndoes
Redoes
EndRedoes
EndUndoRedoHistory
Fore
SplineSet
494 -35 m 0
 875 -35 965 217 1016 577 c 0
 1070 959 954 1155 718 1120 c 0
 638 1108 555 1077 532 1047 c 1
 590 1319 l 1
 1049 1319 l 1
 1092 1626 l 1
 353 1626 l 1
 183 681 l 1
 494 681 l 1
 522 795 561 837 620 837 c 0
 705 837 704 716 684 574 c 0
 654 361 638 251 561 245 c 0
 483 239 469 286 498 493 c 1
 156 493 l 1
 112 182 136 -35 494 -35 c 0
EndSplineSet
EndChar

StartChar: foundryicon
Encoding: 403 -1 241
Width: 1445
VWidth: 0
GlyphClass: 2
Flags: HW
LayerCount: 2
UndoRedoHistory
Layer: 1
Undoes
EndUndoes
Redoes
EndRedoes
EndUndoRedoHistory
Fore
SplineSet
369 249 m 1
 794 544 l 1
 1145 249 l 1
 1072 737 l 1
 1502 1051 l 1
 1023 1051 l 1
 934 1539 l 1
 717 1051 l 1
 236 1041 l 1
 578 737 l 1
 369 249 l 1
EndSplineSet
EndChar

StartChar: four
Encoding: 52 52 242
Width: 992
VWidth: 0
GlyphClass: 2
Flags: HW
LayerCount: 2
UndoRedoHistory
Layer: 1
Undoes
EndUndoes
Redoes
EndRedoes
EndUndoRedoHistory
Fore
SplineSet
523 0 m 1
 833 0 l 1
 884 364 l 1
 1023 364 l 1
 1062 643 l 1
 924 643 l 1
 1062 1626 l 1
 675 1626 l 1
 130 628 l 1
 93 364 l 1
 574 364 l 1
 523 0 l 1
424 643 m 1
 685 1157 l 1
 613 643 l 1
 424 643 l 1
EndSplineSet
EndChar

StartChar: fraction
Encoding: 404 8260 243
Width: 575
VWidth: 0
GlyphClass: 2
Flags: HW
LayerCount: 2
UndoRedoHistory
Layer: 1
Undoes
EndUndoes
Redoes
EndRedoes
EndUndoRedoHistory
Fore
SplineSet
9 0 m 1
 229 0 l 1
 796 1638 l 5
 578 1638 l 1
 9 0 l 1
EndSplineSet
EndChar

StartChar: g
Encoding: 103 103 244
Width: 931
VWidth: 0
GlyphClass: 2
Flags: W
HStem: -312 217<351.855 620.947> 375 213<502.184 604.9> 971 214<542.334 650.015>
LayerCount: 2
UndoRedoHistory
Layer: 1
Undoes
EndUndoes
Redoes
EndRedoes
EndUndoRedoHistory
Fore
SplineSet
451 -312 m 0
 766 -312 871 -173 894 -11 c 0
 915 140 866 223 645 260 c 0
 440 294 308 307 305 341 c 0
 300 387 392 461 454 520 c 1
 318 437 l 1
 366 402 448 375 537 375 c 0
 780 375 922 523 955 760 c 0
 980 939 920 999 901 1022 c 1
 881 959 l 1
 936 998 1072 1070 1111 1085 c 1
 1070 1313 l 1
 1022 1267 l 1
 953 1219 878 1131 817 1049 c 1
 875 1049 l 1
 849 1139 741 1185 622 1185 c 0
 384 1185 213 1058 171 760 c 0
 147 587 216 506 303 459 c 1
 316 555 l 1
 208 471 71 390 80 265 c 0
 84 206 128 165 272 111 c 1
 284 195 l 1
 234 144 42 43 25 -79 c 0
 -5 -295 297 -312 451 -312 c 0
482 -95 m 0
 381 -95 341 -68 348 -16 c 0
 358 54 453 152 450 151 c 2
 341 94 l 1
 543 61 l 2
 620 49 649 29 629 -38 c 0
 617 -80 572 -95 482 -95 c 0
546 588 m 0
 488 588 492 653 510 780 c 0
 527 900 533 971 598 971 c 0
 663 971 659 920 639 780 c 0
 620 644 604 588 546 588 c 0
EndSplineSet
EndChar

StartChar: germandbls
Encoding: 408 223 248
Width: 1110
VWidth: 0
GlyphClass: 2
Flags: HW
LayerCount: 2
UndoRedoHistory
Layer: 1
Undoes
EndUndoes
Redoes
EndRedoes
EndUndoRedoHistory
Fore
SplineSet
463 -35 m 1
 758 -35 970 92 1022 459 c 0
 1049 652 956 818 768 883 c 1
 946 954 1023 1084 1044 1232 c 4
 1084 1515 987 1686 698 1686 c 0
 397 1686 267 1438 236 1216 c 1
 567 1216 l 1
 584 1358 621 1437 690 1437 c 0
 745 1437 792 1376 771 1224 c 0
 747 1052 691 986 623 986 c 2
 610 986 l 1
 570 704 l 1
 587 704 l 2
 653 704 711 624 704 514 c 0
 690 303 602 243 502 243 c 1
 463 -35 l 1
EndSplineSet
Refer: 282 -1 N 1 0 0 1 -1 0 2
EndChar

StartChar: grave
Encoding: 96 96 249
Width: 601
VWidth: 0
GlyphClass: 2
Flags: W
HStem: 1281 415
LayerCount: 2
UndoRedoHistory
Layer: 1
Undoes
EndUndoes
Redoes
EndRedoes
EndUndoRedoHistory
Fore
SplineSet
494 1281 m 1
 720 1281 l 1
 660 1696 l 1
 303 1696 l 1
 494 1281 l 1
EndSplineSet
EndChar

StartChar: greater
Encoding: 62 62 250
Width: 771
VWidth: 0
GlyphClass: 2
Flags: HW
LayerCount: 2
UndoRedoHistory
Layer: 1
Undoes
EndUndoes
Redoes
EndRedoes
EndUndoRedoHistory
Fore
SplineSet
135 252 m 1
 804 705 l 1
 842 975 l 1
 300 1430 l 1
 256 1116 l 1
 577 842 l 1
 178 564 l 1
 135 252 l 1
EndSplineSet
EndChar

StartChar: guillemotleft
Encoding: 409 171 251
Width: 944
VWidth: 0
GlyphClass: 2
Flags: HW
LayerCount: 2
UndoRedoHistory
Layer: 1
Undoes
EndUndoes
Redoes
EndRedoes
EndUndoRedoHistory
Fore
SplineSet
467 34 m 1
 515 369 l 1
 336 577 l 1
 573 783 l 1
 620 1118 l 1
 154 634 l 1
 137 518 l 1
 467 34 l 1
892 34 m 1
 940 369 l 1
 761 577 l 1
 998 783 l 1
 1045 1118 l 1
 579 634 l 1
 562 518 l 1
 892 34 l 1
EndSplineSet
EndChar

StartChar: guillemotright
Encoding: 410 187 252
Width: 945
VWidth: 0
GlyphClass: 2
Flags: HW
LayerCount: 2
UndoRedoHistory
Layer: 1
Undoes
EndUndoes
Redoes
EndRedoes
EndUndoRedoHistory
Fore
SplineSet
58 34 m 1
 523 518 l 1
 539 634 l 1
 210 1118 l 1
 163 783 l 1
 341 577 l 1
 105 369 l 1
 58 34 l 1
483 34 m 1
 948 518 l 1
 964 634 l 1
 636 1118 l 1
 589 783 l 1
 766 577 l 1
 531 369 l 1
 483 34 l 1
EndSplineSet
EndChar

StartChar: guilsinglleft
Encoding: 411 8249 253
Width: 534
VWidth: 0
GlyphClass: 2
Flags: HW
LayerCount: 2
UndoRedoHistory
Layer: 1
Undoes
EndUndoes
Redoes
EndRedoes
EndUndoRedoHistory
Fore
SplineSet
467 34 m 1
 515 369 l 1
 336 577 l 1
 573 783 l 1
 620 1118 l 1
 154 634 l 1
 137 518 l 1
 467 34 l 1
EndSplineSet
EndChar

StartChar: guilsinglright
Encoding: 412 8250 254
Width: 513
VWidth: 0
GlyphClass: 2
Flags: HW
LayerCount: 2
UndoRedoHistory
Layer: 1
Undoes
EndUndoes
Redoes
EndRedoes
EndUndoRedoHistory
Fore
SplineSet
69 34 m 1
 535 518 l 1
 552 634 l 1
 222 1118 l 1
 175 783 l 1
 353 577 l 1
 116 369 l 1
 69 34 l 1
EndSplineSet
EndChar

StartChar: hbar
Encoding: 413 295 256
Width: 1011
VWidth: 0
GlyphClass: 2
Flags: HW
LayerCount: 2
UndoRedoHistory
Layer: 1
Undoes
EndUndoes
Redoes
EndRedoes
EndUndoRedoHistory
Fore
SplineSet
841 1319 m 5
 868 1508 l 1
 222 1508 l 1
 196 1319 l 5
 841 1319 l 5
EndSplineSet
Refer: 281 -1 N 1 0 0 1 36 0 2
Refer: 277 -1 N 1 0 0 1 26 0 2
EndChar

StartChar: hungarumlaut
Encoding: 415 733 258
Width: 941
VWidth: 0
GlyphClass: 2
Flags: W
HStem: 1264 448
LayerCount: 2
UndoRedoHistory
Layer: 1
Undoes
EndUndoes
Redoes
EndRedoes
EndUndoRedoHistory
Fore
SplineSet
230 1264 m 1
 407 1264 l 5
 700 1712 l 1
 418 1712 l 1
 230 1264 l 1
600 1264 m 1
 781 1264 l 1
 1074 1712 l 1
 789 1712 l 1
 600 1264 l 1
EndSplineSet
EndChar

StartChar: hyphen
Encoding: 45 45 259
Width: 427
VWidth: 0
GlyphClass: 2
Flags: HW
LayerCount: 2
UndoRedoHistory
Layer: 1
Undoes
EndUndoes
Redoes
EndRedoes
EndUndoRedoHistory
Fore
SplineSet
102 713 m 1
 526 713 l 1
 561 962 l 1
 137 962 l 1
 102 713 l 1
EndSplineSet
EndChar

StartChar: i
Encoding: 105 105 260
Width: 507
VWidth: 0
GlyphClass: 2
Flags: W
DStem2: 75 0 421 0 0.139255 0.990257<48.1822 1227.96>
LayerCount: 2
UndoRedoHistory
Layer: 1
Undoes
EndUndoes
Redoes
EndRedoes
EndUndoRedoHistory
Fore
SplineSet
264 1391 m 1
 583 1391 l 1
 616 1626 l 1
 297 1626 l 1
 264 1391 l 1
EndSplineSet
Refer: 282 -1 N 1 0 0 1 5 0 2
EndChar

StartChar: j
Encoding: 106 106 270
Width: 516
VWidth: 0
GlyphClass: 2
Flags: W
HStem: -393 289<-48.3604 172>
DStem2: 94 0 440 0 0.139255 0.990257<48.1822 1227.96>
LayerCount: 2
UndoRedoHistory
Layer: 1
Undoes
EndUndoes
Redoes
EndRedoes
EndUndoRedoHistory
Fore
SplineSet
83 -393 m 4
 261 -393 369 -253 395 -65 c 6
 427 162 l 5
 109 162 l 5
 84 -19 l 6
 75 -86 40 -104 3 -104 c 4
 -13 -104 -29 -99 -46 -95 c 5
 -83 -362 l 5
 -32 -379 22 -393 83 -393 c 4
280 1391 m 1
 599 1391 l 1
 632 1626 l 1
 313 1626 l 1
 280 1391 l 1
EndSplineSet
Refer: 282 -1 N 1 0 0 1 24 0 2
EndChar

StartChar: k
Encoding: 107 107 272
Width: 1166
VWidth: 0
GlyphClass: 2
Flags: W
DStem2: 67 0 413 0 0.13946 0.990228<48.2532 1642.05> 783 702 527 588 0.317443 -0.948277<26.8381 640.295> 830 1216 783 702 0.607151 0.794586<-436.953 0>
LayerCount: 2
UndoRedoHistory
Layer: 1
Undoes
EndUndoes
Redoes
EndRedoes
EndUndoRedoHistory
Fore
SplineSet
263 249 m 1
 527 588 l 1
 703 0 l 1
 1018 0 l 1
 783 702 l 1
 1164 1216 l 1
 830 1216 l 1
 302 525 l 1
 263 249 l 1
EndSplineSet
Refer: 277 -1 N 1 0 0 1 -1 0 2
EndChar

StartChar: kgreenlandic
Encoding: 427 312 274
Width: 974
VWidth: 0
GlyphClass: 2
Flags: HW
LayerCount: 2
UndoRedoHistory
Layer: 1
Undoes
EndUndoes
Redoes
EndRedoes
EndUndoRedoHistory
Fore
SplineSet
319 575 m 1
 415 488 l 1
 539 0 l 1
 876 0 l 1
 705 608 l 1
 1024 1156 l 1
 690 1156 l 5
 445 692 l 1
 323 603 l 1
 319 575 l 1
EndSplineSet
Refer: 282 -1 N 1 0 0 1 -1 0 2
EndChar

StartChar: lc_ascender_stem
Encoding: 429 -1 277
Width: 416
VWidth: 0
GlyphClass: 2
Flags: W
DStem2: 68 0 414 0 0.13946 0.990228<48.2532 1642.05>
LayerCount: 2
UndoRedoHistory
Layer: 1
Undoes
EndUndoes
Redoes
EndRedoes
EndUndoRedoHistory
Fore
SplineSet
643 1626 m 1
 297 1626 l 1
 68 0 l 1
 414 0 l 1
 643 1626 l 1
EndSplineSet
EndChar

StartChar: lc_descender_stem
Encoding: 430 -1 278
Width: 416
VWidth: 0
GlyphClass: 2
Flags: W
DStem2: 20 -356 366 -356 0.139216 0.990262<48.1688 1587.46>
LayerCount: 2
UndoRedoHistory
Layer: 1
Undoes
EndUndoes
Redoes
EndRedoes
EndUndoRedoHistory
Fore
SplineSet
587 1216 m 1
 241 1216 l 1
 20 -356 l 1
 366 -356 l 1
 587 1216 l 1
EndSplineSet
EndChar

StartChar: lc_left_curve
Encoding: 431 -1 279
Width: 943
VWidth: 0
GlyphClass: 2
Flags: W
HStem: -18 263<485.5 800> 990 254<666.5 885.721>
DStem2: 373 307 805 900 0.139156 0.990271<-6.28111 741.235>
LayerCount: 2
UndoRedoHistory
Layer: 1
Undoes
EndUndoes
Redoes
EndRedoes
EndUndoRedoHistory
Fore
SplineSet
563 -18 m 0
 707 -18 868 73 1012 275 c 1
 1032 422 l 1
 964 361 829 245 771 245 c 0
 732 245 717 281 723 322 c 2
 805 900 l 2
 813 954 835 990 880 990 c 0
 953 990 1036 875 1087 814 c 1
 1103 927 l 1
 1031 1101 893 1244 742 1244 c 0
 591 1244 487 1120 459 919 c 2
 373 307 l 2
 344 101 408 -18 563 -18 c 0
EndSplineSet
EndChar

StartChar: lc_right_curve
Encoding: 432 -1 280
Width: 943
VWidth: 0
GlyphClass: 2
Flags: W
DStem2: 579 308 927 307 0.138742 0.990329<-71.4743 671.967>
LayerCount: 2
UndoRedoHistory
Layer: 1
Undoes
EndUndoes
Redoes
EndRedoes
EndUndoRedoHistory
Fore
SplineSet
502 236 m 0
 436 238 347 332 296 393 c 1
 281 282 l 1
 368 80 509 -18 652 -18 c 0
 787 -18 897 97 927 307 c 2
 1014 928 l 2
 1044 1138 972 1237 830 1244 c 0
 706 1250 529 1152 372 934 c 1
 352 786 l 1
 421 851 552 971 607 980 c 0
 650 987 670 950 664 909 c 2
 579 308 l 2
 573 267 544 235 502 236 c 0
EndSplineSet
EndChar

StartChar: lc_xheight_curve_stem
Encoding: 433 -1 281
Width: 889
VWidth: 0
GlyphClass: 2
Flags: W
HStem: 986 258<623 841>
DStem2: 538 0 884 0 0.138953 0.990299<48.0777 989.432>
LayerCount: 2
UndoRedoHistory
Layer: 1
Undoes
EndUndoes
Redoes
EndRedoes
EndUndoRedoHistory
Fore
SplineSet
347 758 m 1
 467 936 572 983 623 986 c 0
 663 988 673 962 666 914 c 2
 538 0 l 1
 884 0 l 1
 1018 955 l 2
 1042 1129 976 1244 841 1244 c 0
 688 1244 548 1169 362 867 c 1
 347 758 l 1
EndSplineSet
EndChar

StartChar: lc_xheight_stem
Encoding: 434 -1 282
Width: 882
VWidth: 0
GlyphClass: 2
Flags: W
DStem2: 70 0 416 0 0.139255 0.990257<48.1822 1227.96>
LayerCount: 2
UndoRedoHistory
Layer: 1
Undoes
EndUndoes
Redoes
EndRedoes
EndUndoRedoHistory
Fore
SplineSet
70 0 m 1
 416 0 l 1
 587 1216 l 1
 241 1216 l 1
 70 0 l 1
EndSplineSet
EndChar

StartChar: less
Encoding: 60 60 286
Width: 771
VWidth: 0
GlyphClass: 2
Flags: HW
LayerCount: 2
UndoRedoHistory
Layer: 1
Undoes
EndUndoes
Redoes
EndRedoes
EndUndoRedoHistory
Fore
SplineSet
700 252 m 5
 744 564 l 5
 424 842 l 5
 821 1116 l 5
 866 1430 l 5
 197 975 l 5
 159 705 l 5
 700 252 l 5
EndSplineSet
EndChar

StartChar: logicalnot
Encoding: 438 172 287
Width: 751
VWidth: 0
GlyphClass: 2
Flags: HW
LayerCount: 2
UndoRedoHistory
Layer: 1
Undoes
EndUndoes
Redoes
EndRedoes
EndUndoRedoHistory
Fore
SplineSet
485 234 m 1
 654 234 l 1
 713 653 l 1
 216 653 l 1
 182 410 l 1
 510 410 l 1
 485 234 l 1
EndSplineSet
EndChar

StartChar: lslash
Encoding: 439 322 288
Width: 534
VWidth: 0
GlyphClass: 2
Flags: HW
LayerCount: 2
UndoRedoHistory
Layer: 1
Undoes
EndUndoes
Redoes
EndRedoes
EndUndoRedoHistory
Fore
SplineSet
123 0 m 1
 458 0 l 1
 597 989 l 1
 773 1053 l 1
 800 1245 l 1
 624 1181 l 1
 691 1652 l 1
 355 1652 l 1
 269 1043 l 1
 102 982 l 1
 75 790 l 1
 243 851 l 1
 123 0 l 1
EndSplineSet
EndChar

StartChar: macron
Encoding: 440 175 290
Width: 262
VWidth: 0
GlyphClass: 2
Flags: W
HStem: 1341 204
LayerCount: 2
UndoRedoHistory
Layer: 1
Undoes
EndUndoes
Redoes
EndRedoes
EndUndoRedoHistory
Fore
SplineSet
99 1341 m 1
 548 1341 l 1
 576 1545 l 1
 128 1545 l 1
 99 1341 l 1
EndSplineSet
EndChar

StartChar: minus
Encoding: 441 8722 291
Width: 814
VWidth: 0
GlyphClass: 2
Flags: HW
LayerCount: 2
UndoRedoHistory
Layer: 1
Undoes
EndUndoes
Redoes
EndRedoes
EndUndoRedoHistory
Fore
SplineSet
195 506 m 1
 744 506 l 1
 778 749 l 1
 229 749 l 1
 195 506 l 1
EndSplineSet
EndChar

StartChar: multiply
Encoding: 443 215 293
Width: 747
VWidth: 0
GlyphClass: 2
Flags: HW
LayerCount: 2
UndoRedoHistory
Layer: 1
Undoes
EndUndoes
Redoes
EndRedoes
EndUndoRedoHistory
Fore
SplineSet
251 280 m 1
 439 456 l 1
 577 280 l 1
 752 445 l 1
 692 517 679 535 614 619 c 1
 801 795 l 1
 673 961 l 1
 485 784 l 1
 347 961 l 1
 170 795 l 1
 308 619 l 1
 121 445 l 1
 251 280 l 1
EndSplineSet
EndChar

StartChar: nine
Encoding: 57 57 298
Width: 977
VWidth: 0
GlyphClass: 2
Flags: HW
LayerCount: 2
UndoRedoHistory
Layer: 1
Undoes
EndUndoes
Redoes
EndRedoes
EndUndoRedoHistory
Fore
SplineSet
718 1652 m 0
 397 1652 251 1415 200 1052 c 0
 163 786 222 566 467 575 c 0
 543 578 617 605 653 659 c 1
 642 579 l 2
 605 316 603 257 524 257 c 0
 455 257 463 311 481 437 c 1
 150 437 l 1
 145 406 l 2
 106 125 168 -27 481 -27 c 0
 840 -27 956 199 1002 524 c 2
 1084 1107 l 2
 1129 1428 1033 1652 718 1652 c 0
680 1376 m 0
 751 1376 742 1292 729 1197 c 2
 690 919 l 1
 678 900 649 868 613 868 c 0
 540 868 551 955 572 1103 c 0
 599 1297 612 1376 680 1376 c 0
EndSplineSet
EndChar

StartChar: numbersign
Encoding: 35 35 300
Width: 1005
VWidth: 0
GlyphClass: 2
Flags: HW
LayerCount: 2
UndoRedoHistory
Layer: 1
Undoes
EndUndoes
Redoes
EndRedoes
EndUndoRedoHistory
Fore
SplineSet
176 0 m 1
 371 0 l 1
 486 537 l 1
 593 537 l 1
 480 0 l 1
 674 0 l 1
 790 537 l 1
 974 537 l 1
 1013 818 l 1
 861 818 l 1
 863 871 l 1
 1002 871 l 1
 1042 1156 l 1
 934 1156 l 1
 1042 1652 l 1
 844 1652 l 1
 738 1156 l 1
 632 1156 l 1
 739 1652 l 1
 540 1652 l 1
 434 1156 l 1
 243 1156 l 1
 203 871 l 1
 362 871 l 1
 360 818 l 1
 215 818 l 1
 175 537 l 1
 289 537 l 1
 176 0 l 1
560 871 m 1
 665 871 l 1
 663 818 l 1
 557 818 l 1
 560 871 l 1
EndSplineSet
EndChar

StartChar: o
Encoding: 111 111 301
Width: 878
VWidth: 0
GlyphClass: 2
Flags: W
HStem: -27 263<317.038 530.925> 920 263<508.835 613.072>
DStem2: 98 326 424 330 0.139496 0.990223<-33.3467 644.384> 543 330 868 326 0.139496 0.990223<-94.49 583.82>
LayerCount: 2
UndoRedoHistory
Layer: 1
Undoes
EndUndoes
Redoes
EndRedoes
EndUndoRedoHistory
Fore
SplineSet
424 330 m 2
 494 827 l 2
 504 895 527 920 565 920 c 0
 605 920 623 898 613 827 c 2
 543 330 l 2
 533 259 509 236 469 236 c 0
 431 236 414 262 424 330 c 2
98 326 m 2
 64 84 212 -27 431 -27 c 0
 650 -27 834 83 868 326 c 2
 939 830 l 2
 973 1073 820 1183 601 1183 c 0
 382 1183 203 1072 169 830 c 2
 98 326 l 2
EndSplineSet
EndChar

StartChar: oe
Encoding: 452 339 306
Width: 1279
VWidth: 0
GlyphClass: 2
Flags: HW
LayerCount: 2
UndoRedoHistory
Layer: 1
Undoes
EndUndoes
Redoes
EndRedoes
EndUndoRedoHistory
Fore
SplineSet
359 -28 m 0
 508 -28 602 34 657 120 c 1
 680 25 776 -30 909 -30 c 0
 1110 -30 1241 103 1269 302 c 2
 1295 484 l 1
 988 484 l 1
 962 301 l 2
 952 228 936 186 904 186 c 0
 877 186 867 229 877 302 c 2
 913 560 l 1
 1304 560 l 1
 1347 861 l 2
 1378 1081 1309 1244 1079 1244 c 0
 995 1244 854 1196 802 1089 c 1
 785 1196 651 1244 563 1244 c 0
 378 1244 213 1145 180 909 c 2
 99 334 l 2
 63 78 207 -28 359 -28 c 0
576 1032 m 0
 602 1032 628 1012 616 930 c 2
 531 322 l 2
 513 197 477 186 452 186 c 0
 425 186 410 237 422 323 c 2
 507 930 l 2
 519 1016 553 1032 576 1032 c 0
1059 961 m 2
 1031 760 l 1
 941 760 l 1
 969 961 l 2
 977 1018 1009 1032 1023 1032 c 0
 1038 1032 1066 1011 1059 961 c 2
EndSplineSet
EndChar

StartChar: ogonek
Encoding: 453 731 307
Width: 515
VWidth: 0
GlyphClass: 2
Flags: W
HStem: -529 179<241.724 324>
LayerCount: 2
UndoRedoHistory
Layer: 1
Undoes
EndUndoes
Redoes
EndRedoes
EndUndoRedoHistory
Fore
SplineSet
324 -529 m 1
 375 -350 l 1
 328 -350 212 -352 229 -230 c 0
 241 -142 279 -66 302 21 c 1
 149 21 l 1
 57 -68 -7 -194 -21 -295 c 0
 -54 -528 194 -534 324 -529 c 1
EndSplineSet
EndChar

StartChar: one
Encoding: 49 49 311
Width: 616
VWidth: 0
GlyphClass: 2
Flags: HW
LayerCount: 2
UndoRedoHistory
Layer: 1
Undoes
EndUndoes
Redoes
EndRedoes
EndUndoRedoHistory
Fore
SplineSet
185 0 m 1
 544 0 l 1
 772 1626 l 1
 489 1626 l 1
 422 1548 277 1468 221 1443 c 1
 181 1157 l 1
 358 1232 l 1
 185 0 l 1
EndSplineSet
EndChar

StartChar: onehalf
Encoding: 457 189 312
Width: 1485
VWidth: 0
GlyphClass: 2
Flags: HW
LayerCount: 2
UndoRedoHistory
Layer: 1
Undoes
EndUndoes
Redoes
EndRedoes
EndUndoRedoHistory
Fore
SplineSet
942 0 m 1
 1399 0 l 1
 1422 160 l 1
 1182 160 l 1
 1357 371 l 2
 1428 457 1499 545 1515 656 c 0
 1536 802 1431 890 1286 890 c 0
 1120 890 1036 767 1014 613 c 2
 1007 562 l 1
 1192 562 l 1
 1189 591 1189 616 1192 637 c 0
 1201 703 1237 729 1270 729 c 0
 1305 729 1336 700 1330 659 c 0
 1320 590 1259 522 1214 467 c 2
 964 160 l 1
 942 0 l 1
371 810 m 1
 591 810 l 1
 708 1641 l 1
 560 1641 l 1
 517 1592 439 1535 333 1478 c 1
 310 1310 l 1
 453 1388 l 1
 371 810 l 1
379 0 m 1
 543 0 l 1
 1304 1641 l 1
 1139 1641 l 1
 379 0 l 1
EndSplineSet
EndChar

StartChar: onequarter
Encoding: 458 188 313
Width: 1485
VWidth: 0
GlyphClass: 2
Flags: HW
LayerCount: 2
Back
SplineSet
279 810 m 1
 515 810 l 1
 515 1638 l 1
 356 1638 l 1
 317 1589 242 1532 137 1475 c 1
 137 1307 l 1
 279 1385 l 1
 279 810 l 1
EndSplineSet
UndoRedoHistory
Layer: 1
Undoes
EndUndoes
Redoes
EndRedoes
EndUndoRedoHistory
Fore
SplineSet
1099 0 m 5
 1317 0 l 5
 1349 226 l 5
 1456 226 l 5
 1476 372 l 5
 1369 372 l 5
 1436 847 l 5
 1218 847 l 5
 886 361 l 5
 867 226 l 5
 1131 226 l 5
 1099 0 l 5
371 810 m 5
 591 810 l 5
 708 1641 l 5
 560 1641 l 5
 517 1592 439 1535 333 1478 c 5
 310 1310 l 5
 453 1388 l 5
 371 810 l 5
379 0 m 5
 543 0 l 5
 1304 1641 l 5
 1139 1641 l 5
 379 0 l 5
1016 372 m 5
 1190 648 l 5
 1152 372 l 5
 1016 372 l 5
EndSplineSet
EndChar

StartChar: ordmasculine
Encoding: 460 186 315
Width: 895
VWidth: 0
GlyphClass: 2
Flags: HW
LayerCount: 2
UndoRedoHistory
Layer: 1
Undoes
EndUndoes
Redoes
EndRedoes
EndUndoRedoHistory
Fore
SplineSet
525 589 m 0
 640 589 594 426 592 412 c 2
 551 122 l 2
 549 109 552 -56 435 -56 c 0
 320 -56 362 114 363 122 c 2
 404 412 l 2
 406 424 412 589 525 589 c 0
569 859 m 0
 313 859 195 715 160 467 c 2
 104 69 l 2
 70 -174 147 -324 403 -324 c 0
 638 -324 779 -156 811 69 c 2
 867 467 l 2
 899 695 803 859 569 859 c 0
EndSplineSet
EndChar

StartChar: oslash
Encoding: 461 248 316
Width: 948
VWidth: 0
GlyphClass: 2
Flags: HW
LayerCount: 2
UndoRedoHistory
Layer: 1
Undoes
EndUndoes
Redoes
EndRedoes
EndUndoRedoHistory
Fore
SplineSet
100 -142 m 1
 162 -177 l 1
 921 1346 l 1
 858 1381 l 1
 100 -142 l 1
EndSplineSet
Refer: 301 111 N 1 0 0 1 0 0 2
EndChar

StartChar: paragraph
Encoding: 463 182 319
Width: 870
VWidth: 0
GlyphClass: 2
Flags: HW
LayerCount: 2
UndoRedoHistory
Layer: 1
Undoes
EndUndoes
Redoes
EndRedoes
EndUndoRedoHistory
Fore
SplineSet
331 0 m 1
 559 0 l 1
 671 803 l 1
 730 803 l 1
 617 0 l 1
 830 0 l 1
 1037 1474 l 1
 605 1474 l 2
 414 1474 217 1404 179 1137 c 0
 150 928 277 809 444 803 c 1
 331 0 l 1
EndSplineSet
EndChar

StartChar: parenleft
Encoding: 40 40 320
Width: 638
VWidth: 0
GlyphClass: 2
Flags: HW
LayerCount: 2
UndoRedoHistory
Layer: 1
Undoes
EndUndoes
Redoes
EndRedoes
EndUndoRedoHistory
Fore
SplineSet
578 -58 m 1
 612 178 l 1
 491 178 470 384 535 844 c 0
 599 1296 669 1528 801 1528 c 1
 834 1764 l 1
 396 1767 287 1335 218 844 c 0
 155 399 139 -62 578 -58 c 1
EndSplineSet
EndChar

StartChar: parenright
Encoding: 41 41 321
Width: 638
VWidth: 0
GlyphClass: 2
Flags: HW
LayerCount: 2
UndoRedoHistory
Layer: 1
Undoes
EndUndoes
Redoes
EndRedoes
EndUndoRedoHistory
Fore
SplineSet
91 -58 m 1
 124 178 l 1
 245 178 323 384 388 844 c 0
 452 1296 446 1528 314 1528 c 1
 347 1764 l 1
 785 1767 774 1335 705 844 c 0
 642 399 528 -62 91 -58 c 1
EndSplineSet
EndChar

StartChar: percent
Encoding: 37 37 322
Width: 1992
VWidth: 0
GlyphClass: 2
Flags: HW
LayerCount: 2
UndoRedoHistory
Layer: 1
Undoes
EndUndoes
Redoes
EndRedoes
EndUndoRedoHistory
Fore
SplineSet
669 1411 m 0xd0
 568 1411 551 1301 527 1131 c 2
 538 1207 l 2
 514 1037 499 908 598 908 c 0
 697 908 718 1037 742 1207 c 2
 731 1129 l 2
 755 1300 772 1411 669 1411 c 0xd0
701 1642 m 0
 984 1642 1055 1446 1013 1126 c 1
 1024 1208 l 2
 980 895 847 679 566 679 c 0
 285 679 216 895 260 1208 c 2
 248 1123 l 1
 295 1443 416 1642 701 1642 c 0
1605 743 m 0xb0
 1503 743 1486 631 1462 457 c 2
 1473 539 l 2
 1449 369 1436 240 1535 240 c 0
 1634 240 1654 369 1678 539 c 2
 1666 455 l 2
 1691 630 1709 743 1605 743 c 0xb0
1638 974 m 0
 1921 974 1991 780 1949 460 c 1
 1960 541 l 2
 1916 227 1782 11 1502 11 c 0
 1221 11 1152 227 1196 541 c 2
 1184 460 l 1
 1231 778 1354 974 1638 974 c 0
650 0 m 1
 820 0 l 1
 1551 1696 l 1
 1380 1696 l 1
 650 0 l 1
EndSplineSet
EndChar

StartChar: period
Encoding: 46 46 323
Width: 479
VWidth: 0
GlyphClass: 2
Flags: HW
LayerCount: 2
UndoRedoHistory
Layer: 1
Undoes
EndUndoes
Redoes
EndRedoes
EndUndoRedoHistory
Fore
SplineSet
76 0 m 1
 399 0 l 1
 447 340 l 1
 123 340 l 1
 76 0 l 1
EndSplineSet
EndChar

StartChar: periodcentered
Encoding: 464 183 324
Width: 459
VWidth: 0
GlyphClass: 2
Flags: W
HStem: 601 338
LayerCount: 2
UndoRedoHistory
Layer: 1
Undoes
EndUndoes
Redoes
EndRedoes
EndUndoRedoHistory
Fore
SplineSet
154 601 m 1
 475 601 l 1
 523 939 l 1
 201 939 l 1
 154 601 l 1
EndSplineSet
EndChar

StartChar: plus
Encoding: 43 43 325
Width: 676
VWidth: 0
GlyphClass: 2
Flags: HW
LayerCount: 2
UndoRedoHistory
Layer: 1
Undoes
EndUndoes
Redoes
EndRedoes
EndUndoRedoHistory
Fore
SplineSet
273 332 m 5
 495 332 l 5
 527 557 l 1
 693 557 l 1
 721 761 l 1
 556 761 l 1
 586 976 l 1
 364 976 l 1
 333 761 l 1
 169 761 l 1
 140 557 l 1
 305 557 l 1
 273 332 l 5
EndSplineSet
EndChar

StartChar: plusminus
Encoding: 465 177 326
Width: 814
VWidth: 0
GlyphClass: 2
Flags: HW
LayerCount: 2
UndoRedoHistory
Layer: 1
Undoes
EndUndoes
Redoes
EndRedoes
EndUndoRedoHistory
Fore
SplineSet
335 352 m 1
 561 352 l 1
 586 527 l 1
 747 527 l 1
 781 771 l 1
 620 771 l 1
 645 946 l 1
 419 946 l 1
 394 771 l 1
 232 771 l 1
 198 527 l 1
 360 527 l 1
 335 352 l 1
124 0 m 1
 672 0 l 1
 707 243 l 1
 158 243 l 1
 124 0 l 1
EndSplineSet
EndChar

StartChar: product
Encoding: 466 8719 327
Width: 1058
VWidth: 0
GlyphClass: 2
Flags: HW
LayerCount: 2
UndoRedoHistory
Layer: 1
Undoes
EndUndoes
Redoes
EndRedoes
EndUndoRedoHistory
Fore
SplineSet
114 0 m 1
 355 0 l 1
 557 1440 l 1
 906 1440 l 1
 703 0 l 1
 944 0 l 1
 1175 1643 l 1
 345 1643 l 1
 114 0 l 1
EndSplineSet
EndChar

StartChar: question
Encoding: 63 63 329
Width: 852
VWidth: 0
GlyphClass: 2
Flags: W
HStem: 1368 319<562.051 804.37>
VStem: 230 321<1160.47 1356.92>
DStem2: 210 0 545 0 0.126953 0.991909<42.5293 351.405 486.261 529.561 652.263 739.759>
LayerCount: 2
UndoRedoHistory
Layer: 1
Undoes
EndUndoes
Redoes
EndRedoes
EndUndoRedoHistory
Fore
SplineSet
263 443 m 1
 579 443 l 1
 608 644 l 1
 797 748 979 1033 1012 1269 c 0
 1049 1531 939 1687 657 1687 c 0
 363 1687 254 1505 225 1300 c 0
 213 1214 221 1179 230 1085 c 1
 551 1164 l 1
 543 1217 536 1222 544 1282 c 0
 552 1338 590 1368 622 1368 c 0
 652 1368 678 1342 670 1285 c 0
 635 1037 485 850 301 711 c 5
 263 443 l 1
210 0 m 1
 545 0 l 1
 594 348 l 1
 259 348 l 1
 210 0 l 1
EndSplineSet
EndChar

StartChar: quotedbl
Encoding: 34 34 331
Width: 657
VWidth: 0
GlyphClass: 2
Flags: HW
LayerCount: 2
UndoRedoHistory
Layer: 1
Undoes
EndUndoes
Redoes
EndRedoes
EndUndoRedoHistory
Fore
SplineSet
620 1000 m 1
 773 1000 l 1
 915 1655 l 1
 623 1655 l 1
 620 1000 l 1
241 1000 m 1
 393 1000 l 1
 536 1655 l 1
 244 1655 l 1
 241 1000 l 1
EndSplineSet
EndChar

StartChar: quoteleft
Encoding: 471 8216 335
Width: 523
VWidth: 0
GlyphClass: 2
Flags: W
HStem: 1573 113<482.307 597>
LayerCount: 2
UndoRedoHistory
Layer: 1
Undoes
EndUndoes
Redoes
EndRedoes
EndUndoRedoHistory
Fore
SplineSet
271 1141 m 1
 562 1141 l 1
 606 1455 l 1
 462 1455 l 1
 474 1543 493 1573 599 1573 c 1
 597 1686 l 1
 356 1686 328 1546 271 1141 c 1
EndSplineSet
EndChar

StartChar: quotesingle
Encoding: 39 39 338
Width: 292
VWidth: 0
GlyphClass: 2
Flags: HW
LayerCount: 2
UndoRedoHistory
Layer: 1
Undoes
EndUndoes
Redoes
EndRedoes
EndUndoRedoHistory
Fore
SplineSet
206 999 m 1
 378 999 l 1
 360 939 555 1713 536 1652 c 1
 232 1652 l 1
 206 999 l 1
EndSplineSet
EndChar

StartChar: r
Encoding: 114 114 339
Width: 722
VWidth: 0
GlyphClass: 2
Flags: W
VStem: 248 12<178 215.873>
DStem2: 71 0 417 0 0.139255 0.990257<48.1822 1227.96>
LayerCount: 2
UndoRedoHistory
Layer: 1
Undoes
EndUndoes
Redoes
EndRedoes
EndUndoRedoHistory
Fore
SplineSet
248 178 m 1
 382 587 525 836 724 851 c 0
 730 851 736 852 743 852 c 1
 786 1160 l 1
 772 1167 758 1170 744 1170 c 0
 565 1170 374 668 260 259 c 1
 248 178 l 1
EndSplineSet
Refer: 282 -1 N 1 0 0 1 1 0 2
EndChar

StartChar: registered
Encoding: 477 174 343
Width: 1706
VWidth: 0
GlyphClass: 2
Flags: HW
LayerCount: 2
UndoRedoHistory
Layer: 1
Undoes
EndUndoes
Redoes
EndRedoes
EndUndoRedoHistory
Fore
SplineSet
798 26 m 0
 322 26 169 416 225 814 c 0
 281 1213 543 1598 1019 1598 c 0
 1493 1598 1647 1213 1591 814 c 0
 1535 416 1272 26 798 26 c 0
791 -22 m 0
 1316 -22 1589 410 1645 812 c 0
 1701 1214 1550 1646 1026 1646 c 0
 501 1646 226 1214 170 812 c 0
 114 411 266 -22 791 -22 c 0
EndSplineSet
Refer: 195 99 N 1.0747 0 0 1.0747 348 159 2
EndChar

StartChar: ring
Encoding: 478 730 344
Width: 673
VWidth: 0
GlyphClass: 2
Flags: W
HStem: 1354 129<506.844 579.053> 1672 129<520.881 592.88>
LayerCount: 2
UndoRedoHistory
Layer: 1
Undoes
EndUndoes
Redoes
EndRedoes
EndUndoRedoHistory
Fore
SplineSet
537 1483 m 0
 504 1483 501 1542 506 1580 c 0
 511 1616 532 1672 564 1672 c 0
 595 1672 597 1610 592 1577 c 0
 587 1542 568 1483 537 1483 c 0
519 1354 m 0
 636 1354 755 1427 776 1578 c 0
 797 1728 698 1801 582 1801 c 0
 465 1801 347 1729 326 1578 c 0
 305 1427 402 1354 519 1354 c 0
EndSplineSet
EndChar

StartChar: s
Encoding: 115 115 345
Width: 753
VWidth: 0
GlyphClass: 2
Flags: W
DStem2: 598 710 331 494 0.636383 -0.771373<-267.659 244.114>
LayerCount: 2
UndoRedoHistory
Layer: 1
Undoes
EndUndoes
Redoes
EndRedoes
EndUndoRedoHistory
Fore
SplineSet
531 1246 m 0
 359 1246 185 1095 156 889 c 1
 136 756 220 629 298 534 c 2
 331 494 l 2
 389 424 469 347 463 297 c 0
 459 259 434 234 409 234 c 0
 346 234 325 342 309 418 c 1
 62 327 l 1
 84 96 196 -12 359 -26 c 0
 536 -41 747 85 780 317 c 0
 802 477 708 579 626 676 c 2
 598 710 l 2
 525 796 431 861 449 923 c 0
 453 937 467 973 507 969 c 0
 559 964 580 873 591 806 c 1
 839 929 l 1
 818 1118 703 1246 531 1246 c 0
EndSplineSet
EndChar

StartChar: section
Encoding: 253 167 351
Width: 927
VWidth: 0
GlyphClass: 2
Flags: HW
LayerCount: 2
UndoRedoHistory
Layer: 1
Undoes
EndUndoes
Redoes
EndRedoes
EndUndoRedoHistory
Fore
SplineSet
453 -13 m 0xd8
 659 -13 840 97 874 336 c 1
 890 440 836 534 770 598 c 1
 870 664 923 765 938 874 c 0
 957 1002 898 1100 810 1176 c 0
 769 1213 756 1214 713 1246 c 1
 665 1271 555 1280 568 1374 c 0
 576 1431 611 1459 665 1459 c 0
 742 1459 778 1361 799 1299 c 1
 1027 1377 l 1
 1011 1580 905 1730 700 1730 c 0
 495 1730 308 1618 275 1380 c 0xe8
 259 1269 330 1200 404 1154 c 1
 292 1090 232 976 216 860 c 0
 199 738 233 674 293 634 c 1
 328 606 339 611 378 587 c 1
 490 530 602 494 580 337 c 0
 573 285 535 258 489 258 c 0
 417 258 385 351 373 411 c 1
 138 332 l 1
 157 137 247 -13 453 -13 c 0xd8
564 795 m 1
 534 820 539 793 507 824 c 1
 502 826 505 837 508 856 c 0xd8
 513 892 545 932 576 964 c 1
 600 942 l 1
 618 923 645 892 643 876 c 0
 637 836 598 815 564 795 c 1
EndSplineSet
EndChar

StartChar: semicolon
Encoding: 59 59 352
Width: 456
VWidth: 0
GlyphClass: 2
Flags: HW
LayerCount: 2
UndoRedoHistory
Layer: 1
Undoes
EndUndoes
Redoes
EndRedoes
EndUndoRedoHistory
Fore
SplineSet
77 -291 m 5
 257 -289 364 -167 396 55 c 6
 436 341 l 5
 115 341 l 5
 67 0 l 5
 248 0 l 5
 230 -130 147 -164 78 -180 c 5
 77 -291 l 5
184 841 m 5
 504 841 l 5
 551 1179 l 5
 231 1179 l 5
 184 841 l 5
EndSplineSet
EndChar

StartChar: seven
Encoding: 55 55 353
Width: 741
VWidth: 0
GlyphClass: 2
Flags: HW
LayerCount: 2
UndoRedoHistory
Layer: 1
Undoes
EndUndoes
Redoes
EndRedoes
EndUndoRedoHistory
Fore
SplineSet
129 0 m 1
 479 0 l 1
 920 1347 l 1
 959 1626 l 1
 262 1626 l 1
 221 1338 l 1
 571 1338 l 1
 129 0 l 1
EndSplineSet
EndChar

StartChar: six
Encoding: 54 54 354
Width: 991
VWidth: 0
GlyphClass: 2
Flags: HW
LayerCount: 2
UndoRedoHistory
Layer: 1
Undoes
EndUndoes
Redoes
EndRedoes
EndUndoRedoHistory
Fore
SplineSet
508 -27 m 0
 829 -27 976 210 1027 573 c 0
 1064 839 1004 1059 759 1050 c 0
 683 1047 609 1020 573 966 c 1
 584 1046 l 2
 621 1309 626 1368 705 1368 c 0
 774 1368 763 1314 745 1188 c 1
 1076 1188 l 1
 1080 1219 l 2
 1119 1500 1055 1652 742 1652 c 0
 383 1652 271 1426 225 1101 c 2
 143 518 l 2
 98 197 193 -27 508 -27 c 0
547 249 m 0
 476 249 485 333 498 428 c 2
 537 706 l 1
 549 725 578 757 614 757 c 0
 687 757 675 670 654 522 c 0
 627 328 615 249 547 249 c 0
EndSplineSet
EndChar

StartChar: slash
Encoding: 47 47 355
Width: 833
VWidth: 0
GlyphClass: 2
Flags: HW
LayerCount: 2
UndoRedoHistory
Layer: 1
Undoes
EndUndoes
Redoes
EndRedoes
EndUndoRedoHistory
Fore
SplineSet
118 0 m 1
 280 0 l 1
 1011 1696 l 1
 849 1696 l 1
 118 0 l 1
EndSplineSet
EndChar

StartChar: sterling
Encoding: 484 163 357
Width: 1058
VWidth: 0
GlyphClass: 2
Flags: HW
LayerCount: 2
UndoRedoHistory
Layer: 1
Undoes
EndUndoes
Redoes
EndRedoes
EndUndoRedoHistory
Fore
SplineSet
79 0 m 1
 950 0 l 1
 995 322 l 1
 607 322 l 1
 651 635 l 1
 840 635 l 1
 881 925 l 1
 692 925 l 1
 716 1100 l 2
 730 1201 765 1375 779 1371 c 1
 804 1367 781 1203 775 1159 c 1
 1125 1159 l 1
 1167 1458 1156 1686 820 1686 c 0
 468 1686 376 1406 331 1086 c 2
 309 928 l 1
 210 928 l 1
 168 635 l 1
 268 635 l 1
 217 272 l 1
 109 215 l 1
 79 0 l 1
EndSplineSet
EndChar

StartChar: t
Encoding: 116 116 358
Width: 568
VWidth: 0
GlyphClass: 2
Flags: W
HStem: -13 313<227 529.428>
DStem2: 145 469 452 361 0.139304 0.99025<-110.768 493.705 800.189 1147.07>
LayerCount: 2
UndoRedoHistory
Layer: 1
Undoes
EndUndoes
Redoes
EndRedoes
EndUndoRedoHistory
Fore
SplineSet
352 -13 m 0
 413 -13 488 -14 547 7 c 1
 589 304 l 1
 561 300 536 300 509 300 c 0
 464 300 446 321 452 361 c 2
 536 958 l 1
 650 958 l 1
 687 1217 l 1
 572 1217 l 1
 627 1605 l 1
 304 1605 l 1
 250 1217 l 1
 173 1217 l 1
 136 958 l 1
 213 958 l 1
 145 469 l 2
 112 234 102 -13 352 -13 c 0
EndSplineSet
EndChar

StartChar: three
Encoding: 51 51 363
Width: 991
VWidth: 0
GlyphClass: 2
Flags: HW
LayerCount: 2
UndoRedoHistory
Layer: 1
Undoes
EndUndoes
Redoes
EndRedoes
EndUndoRedoHistory
Fore
SplineSet
495 -35 m 0
 815 -35 963 187 1006 494 c 0
 1040 735 970 824 880 865 c 1
 979 891 1082 1038 1109 1230 c 0
 1152 1536 1003 1688 731 1688 c 0
 465 1688 272 1521 228 1211 c 2
 212 1095 l 1
 569 1095 l 1
 584 1200 l 2
 599 1309 624 1382 690 1382 c 0
 757 1382 770 1322 753 1200 c 0
 730 1037 695 958 563 958 c 2
 503 958 l 1
 469 718 l 1
 536 718 l 2
 662 718 675 643 652 481 c 0
 633 343 611 289 546 289 c 0
 478 289 463 339 487 511 c 2
 496 577 l 1
 139 577 l 1
 131 518 l 2
 85 192 146 -35 495 -35 c 0
EndSplineSet
EndChar

StartChar: threequarters
Encoding: 489 190 364
Width: 1580
VWidth: 0
GlyphClass: 2
Flags: HW
LayerCount: 2
UndoRedoHistory
Layer: 1
Undoes
EndUndoes
Redoes
EndRedoes
EndUndoRedoHistory
Fore
SplineSet
452 608 m 0
 592 608 693 687 713 832 c 0
 725 920 699 951 632 975 c 1
 707 1003 743 1045 755 1130 c 0
 777 1286 694 1361 553 1361 c 0
 412 1361 318 1268 299 1136 c 1
 518 1136 l 1
 517 1130 511 1200 530 1200 c 0
 562 1200 534 1136 534 1133 c 0
 521 1043 501 1049 427 1062 c 1
 403 890 l 1
 483 898 504 924 491 832 c 1
 492 839 503 770 473 770 c 0
 453 770 477 837 476 833 c 1
 256 833 l 1
 237 699 307 608 452 608 c 0
1067 -19 m 1
 1284 -19 l 1
 1316 207 l 1
 1423 207 l 1
 1446 372 l 1
 1339 372 l 1
 1403 828 l 1
 1245 828 l 1
 867 361 l 1
 845 207 l 1
 1098 207 l 1
 1067 -19 l 1
467 0 m 1
 629 0 l 1
 1361 1696 l 1
 1197 1696 l 1
 467 0 l 1
1122 372 m 1
 1119 357 l 1
 1094 372 l 1
 1122 372 l 1
EndSplineSet
EndChar

StartChar: tilde
Encoding: 490 732 365
Width: 802
VWidth: 0
GlyphClass: 2
Flags: W
HStem: 1299 238<655.884 798.049> 1393 229<452.892 633.538>
VStem: 290 159<1309 1389.27> 799 144<1537.51 1610>
LayerCount: 2
UndoRedoHistory
Layer: 1
Undoes
EndUndoes
Redoes
EndRedoes
EndUndoRedoHistory
Fore
SplineSet
779 1299 m 0xb0
 885 1299 925 1474 943 1610 c 1
 799 1610 l 1
 800 1599 800 1537 770 1537 c 0xb0
 714 1537 625 1622 488 1622 c 0
 357 1622 314 1488 290 1309 c 1
 449 1309 l 1
 448 1324 448 1393 498 1393 c 0x70
 593 1393 686 1299 779 1299 c 0xb0
EndSplineSet
EndChar

StartChar: trademark
Encoding: 491 8482 366
Width: 2153
VWidth: 0
GlyphClass: 2
Flags: HW
LayerCount: 2
UndoRedoHistory
Layer: 1
Undoes
EndUndoes
Redoes
EndRedoes
EndUndoRedoHistory
Fore
SplineSet
756 617 m 1
 915 617 l 1
 977 1054 l 1
 1006 617 l 1
 1113 617 l 1
 1264 1050 l 1
 1203 617 l 1
 1364 617 l 1
 1474 1397 l 1
 1237 1397 l 1
 1115 1023 l 1
 1097 1397 l 1
 866 1397 l 1
 756 617 l 1
399 617 m 1
 568 617 l 1
 654 1228 l 1
 792 1228 l 1
 816 1397 l 1
 373 1397 l 1
 349 1228 l 1
 485 1228 l 1
 399 617 l 1
EndSplineSet
EndChar

StartChar: tt
Encoding: 492 -1 367
Width: 1123
VWidth: 0
GlyphClass: 2
Flags: HW
LayerCount: 2
UndoRedoHistory
Layer: 1
Undoes
EndUndoes
Redoes
EndRedoes
EndUndoRedoHistory
Fore
SplineSet
373 -13 m 0x80
 438 -13 521 -14 585 7 c 1
 626 304 l 1x40
 596 300 570 300 540 300 c 0
 491 300 469 321 475 361 c 2
 559 958 l 1
 755 958 l 1
 687 469 l 2
 654 234 646 -13 918 -13 c 0x80
 983 -13 1067 -14 1131 7 c 1
 1172 304 l 1x40
 1142 300 1115 300 1085 300 c 0
 1036 300 1015 321 1021 361 c 2
 1105 958 l 1
 1231 958 l 1
 1267 1217 l 1
 1142 1217 l 1
 1196 1605 l 1
 846 1605 l 1
 792 1217 l 1
 596 1217 l 1
 650 1605 l 1
 300 1605 l 1
 246 1217 l 1
 190 1217 l 1
 154 958 l 1
 210 958 l 1
 141 469 l 2
 108 234 101 -13 373 -13 c 0x80
EndSplineSet
EndChar

StartChar: two
Encoding: 50 50 368
Width: 991
VWidth: 0
GlyphClass: 2
Flags: HW
LayerCount: 2
UndoRedoHistory
Layer: 1
Undoes
EndUndoes
Redoes
EndRedoes
EndUndoRedoHistory
Fore
SplineSet
76 0 m 1
 908 0 l 1
 951 303 l 1
 532 303 l 1
 828 704 l 2
 952 873 1098 1034 1128 1244 c 0
 1167 1521 1021 1688 746 1688 c 0
 432 1688 271 1455 230 1163 c 2
 216 1066 l 1
 569 1066 l 1
 600 1285 621 1339 682 1357 c 0
 741 1374 790 1341 777 1250 c 0
 759 1120 638 993 557 886 c 2
 118 303 l 1
 76 0 l 1
EndSplineSet
EndChar

StartChar: uc_main_stem
Encoding: 495 -1 372
Width: 8
VWidth: 0
GlyphClass: 2
Flags: W
DStem2: 74 0 457 0 0.138863 0.990312<53.1845 1641.91>
LayerCount: 2
UndoRedoHistory
Layer: 1
Undoes
EndUndoes
Redoes
EndRedoes
EndUndoRedoHistory
Fore
SplineSet
74 0 m 1
 457 0 l 1
 685 1626 l 1
 302 1626 l 1
 74 0 l 1
EndSplineSet
EndChar

StartChar: uc_part_stem
Encoding: 496 -1 373
Width: 8
VWidth: 0
GlyphClass: 2
Flags: W
DStem2: 125 362 508 362 0.138679 0.990337<53.1139 1276.33>
LayerCount: 2
UndoRedoHistory
Layer: 1
Undoes
EndUndoes
Redoes
EndRedoes
EndUndoRedoHistory
Fore
SplineSet
125 362 m 1
 508 362 l 1
 685 1626 l 1
 302 1626 l 1
 125 362 l 1
EndSplineSet
EndChar

StartChar: underscore
Encoding: 95 95 379
Width: 663
VWidth: 0
GlyphClass: 2
Flags: HW
LayerCount: 2
UndoRedoHistory
Layer: 1
Undoes
EndUndoes
Redoes
EndRedoes
EndUndoRedoHistory
Fore
SplineSet
-65 -278 m 5
 650 -278 l 5
 684 -35 l 5
 -31 -35 l 5
 -65 -278 l 5
EndSplineSet
EndChar

StartChar: uni00AD
Encoding: 173 173 382
Width: 721
VWidth: 0
GlyphClass: 2
Flags: HW
LayerCount: 2
UndoRedoHistory
Layer: 1
Undoes
EndUndoes
Redoes
EndRedoes
EndUndoRedoHistory
Fore
SplineSet
709 669 m 1
 220 669 l 1
 179 383 l 1
 669 383 l 1
 709 669 l 1
EndSplineSet
EndChar

StartChar: uni00B2
Encoding: 502 178 383
Width: 554
VWidth: 0
GlyphClass: 2
Flags: HW
LayerCount: 2
UndoRedoHistory
Layer: 1
Undoes
EndUndoes
Redoes
EndRedoes
EndUndoRedoHistory
Fore
SplineSet
120 524 m 1
 577 524 l 1
 599 686 l 1
 367 686 l 1
 424 754 413 704 512 826 c 1
 586 913 637 989 645 1049 c 0
 665 1194 585 1277 447 1277 c 0
 307 1277 212 1186 193 1052 c 1
 411 1052 l 1
 410 1048 404 1115 424 1115 c 0
 458 1115 429 1049 429 1050 c 1
 424 1015 404 973 358 910 c 0
 229 731 182 725 141 676 c 1
 120 524 l 1
EndSplineSet
EndChar

StartChar: uni00B3
Encoding: 503 179 384
Width: 709
VWidth: 0
GlyphClass: 2
Flags: HW
LayerCount: 2
UndoRedoHistory
Layer: 1
Undoes
EndUndoes
Redoes
EndRedoes
EndUndoRedoHistory
Fore
SplineSet
435 608 m 0
 575 608 676 687 696 832 c 0
 708 920 683 951 616 975 c 1
 691 1003 726 1045 738 1130 c 0
 760 1286 677 1361 536 1361 c 0
 395 1361 302 1268 283 1136 c 1
 503 1136 l 1
 502 1130 496 1200 514 1200 c 0
 546 1200 517 1136 517 1133 c 0
 504 1043 485 1049 411 1062 c 1
 387 890 l 1
 467 898 488 924 475 832 c 1
 476 839 487 770 457 770 c 0
 437 770 461 837 460 833 c 1
 240 833 l 1
 221 699 290 608 435 608 c 0
EndSplineSet
EndChar

StartChar: uni00B9
Encoding: 504 185 385
Width: 481
VWidth: 0
GlyphClass: 2
Flags: HW
LayerCount: 2
UndoRedoHistory
Layer: 1
Undoes
EndUndoes
Redoes
EndRedoes
EndUndoRedoHistory
Fore
SplineSet
233 607 m 1
 451 607 l 1
 559 1370 l 1
 488 1370 l 1
 415 1298 336 1243 230 1186 c 1
 209 1038 l 1
 192 1034 312 1019 288 1003 c 1
 233 607 l 1
EndSplineSet
EndChar

StartChar: uni0237
Encoding: 546 567 427
Width: 579
VWidth: 0
GlyphClass: 2
Flags: W
HStem: -276 285<79.7624 300.5>
DStem2: 205 75 521 39 0.139187 0.990266<-66.1071 1091.63>
LayerCount: 2
UndoRedoHistory
Layer: 1
Undoes
EndUndoes
Redoes
EndRedoes
EndUndoRedoHistory
Fore
SplineSet
211 -276 m 0
 390 -276 496 -141 521 39 c 2
 678 1156 l 1
 357 1156 l 1
 205 75 l 2
 199 34 181 9 159 9 c 0
 130 9 105 19 83 28 c 1
 44 -245 l 1
 95 -262 149 -276 211 -276 c 0
EndSplineSet
EndChar

StartChar: uni030F
Encoding: 547 783 428
Width: 935
VWidth: 0
GlyphClass: 2
Flags: W
HStem: 1264 448
LayerCount: 2
UndoRedoHistory
Layer: 1
Undoes
EndUndoes
Redoes
EndRedoes
EndUndoRedoHistory
Fore
SplineSet
469 1264 m 1
 697 1264 l 1
 634 1712 l 1
 350 1712 l 1
 469 1264 l 1
768 1264 m 1
 993 1264 l 1
 929 1712 l 1
 647 1712 l 1
 768 1264 l 1
EndSplineSet
EndChar

StartChar: uni0311
Encoding: 548 785 429
Width: 601
VWidth: 0
GlyphClass: 2
Flags: W
HStem: 1445 114<441.484 516.495>
VStem: 268 167<1344 1440.84> 509 166<1344 1440.84>
LayerCount: 2
UndoRedoHistory
Layer: 1
Undoes
EndUndoes
Redoes
EndRedoes
EndUndoRedoHistory
Fore
SplineSet
435 1344 m 1
 429 1353 439 1445 486 1445 c 0
 533 1445 518 1353 509 1344 c 1
 675 1344 l 1
 694 1450 639 1559 502 1559 c 0
 365 1559 279 1450 268 1344 c 1
 435 1344 l 1
EndSplineSet
EndChar

StartChar: uni0326
Encoding: 549 806 430
Width: 422
VWidth: 0
GlyphClass: 2
Flags: W
HStem: -699 111<-4 95.6348>
LayerCount: 2
UndoRedoHistory
Layer: 1
Undoes
EndUndoes
Redoes
EndRedoes
EndUndoRedoHistory
Fore
SplineSet
-5 -699 m 1
 175 -697 282 -575 314 -353 c 2
 354 -67 l 1
 33 -67 l 1
 -15 -408 l 1
 166 -408 l 1
 148 -538 65 -572 -4 -588 c 1
 -5 -699 l 1
EndSplineSet
EndChar

StartChar: uni0409
Encoding: 169 1033 438
Width: 1805
VWidth: 0
GlyphClass: 2
Flags: HW
LayerCount: 2
UndoRedoHistory
Layer: 1
Undoes
EndUndoes
Redoes
EndRedoes
EndUndoRedoHistory
Fore
SplineSet
19 0 m 1x40
 206 0 l 2
 504 0 596 156 637 448 c 1
 254 448 l 1
 237 329 181 283 59 286 c 1
 19 0 l 1x40
576 1333 m 1
 1117 1333 l 1
 1159 1628 l 1
 618 1628 l 1
 576 1333 l 1
EndSplineSet
Refer: 210 -1 N 1 0 0 1 567 0 2
Refer: 372 -1 N 1 0 0 0.726012 187 448 2
Refer: 372 -1 N 1 0 0 1 715 2 2
EndChar

StartChar: uni040A
Encoding: 170 1034 439
Width: 1668
VWidth: 0
GlyphClass: 2
Flags: HW
LayerCount: 2
UndoRedoHistory
Layer: 1
Undoes
EndUndoes
Redoes
EndRedoes
EndUndoRedoHistory
Fore
SplineSet
373 671 m 1
 915 671 l 1
 956 966 l 1
 415 966 l 1
 373 671 l 1
EndSplineSet
Refer: 210 -1 N 1 0 0 1 449 0 2
Refer: 372 -1 N 1 0 0 1 597 2 2
Refer: 372 -1 N 1 0 0 1 7 2 2
EndChar

StartChar: uni040F
Encoding: 175 1039 443
Width: 1176
VWidth: 0
GlyphClass: 2
Flags: HW
LayerCount: 2
UndoRedoHistory
Layer: 1
Undoes
EndUndoes
Redoes
EndRedoes
EndUndoRedoHistory
Fore
SplineSet
286 0 m 1
 819 0 l 1
 861 295 l 1
 328 295 l 1
 286 0 l 1
EndSplineSet
Refer: 372 -1 N 1 0 0 1 7 0 2
Refer: 372 -1 N 1 0 0 1 595 0 2
EndChar

StartChar: uni0413
Encoding: 179 1043 446
Width: 911
VWidth: 0
GlyphClass: 2
Flags: W
DStem2: 81 0 464 0 0.138863 0.990312<53.1845 1641.91>
LayerCount: 2
UndoRedoHistory
Layer: 1
Undoes
EndUndoes
Redoes
EndRedoes
EndUndoRedoHistory
Fore
SplineSet
1023 1321 m 1
 1066 1626 l 1
 508 1626 l 1
 466 1321 l 1
 1023 1321 l 1
EndSplineSet
Refer: 372 -1 N 1 0 0 1 7 0 2
EndChar

StartChar: uni0418
Encoding: 184 1048 448
Width: 1025
VWidth: 0
GlyphClass: 2
Flags: W
DStem2: 309 1626 532 962 0.13946 0.990228<-626.412 0> 616 0 945 0 0.13946 0.990228<45.8824 774.566>
LayerCount: 2
UndoRedoHistory
Layer: 1
Undoes
EndUndoes
Redoes
EndRedoes
EndUndoRedoHistory
Fore
SplineSet
945 0 m 1
 1174 1626 l 1
 901 1626 l 1
 532 962 l 1
 626 1626 l 1
 309 1626 l 1
 80 0 l 1
 342 0 l 1
 724 767 l 1
 616 0 l 1
 945 0 l 1
EndSplineSet
EndChar

StartChar: uni041F
Encoding: 191 1055 454
Width: 1176
VWidth: 0
GlyphClass: 2
Flags: W
DStem2: 81 0 464 0 0.138863 0.990312<53.1845 1641.91> 669 0 1052 0 0.138863 0.990312<53.1845 1641.91>
LayerCount: 2
UndoRedoHistory
Layer: 1
Undoes
EndUndoes
Redoes
EndRedoes
EndUndoRedoHistory
Fore
SplineSet
474 1331 m 1
 1006 1331 l 1
 1048 1626 l 1
 515 1626 l 1
 474 1331 l 1
EndSplineSet
Refer: 372 -1 N 1 0 0 1 595 0 2
Refer: 372 -1 N 1 0 0 1 7 0 2
EndChar

StartChar: uni0452
Encoding: 242 1106 468
Width: 329
VWidth: 0
GlyphClass: 2
Flags: HW
LayerCount: 2
UndoRedoHistory
Layer: 1
Undoes
EndUndoes
Redoes
EndRedoes
EndUndoRedoHistory
Fore
SplineSet
395 -2 m 1
 423 0 l 1
 160 0 l 1
 132 -2 l 1
 395 -2 l 1
EndSplineSet
EndChar

StartChar: uni0459
Encoding: 249 1113 474
Width: 1428
VWidth: 0
GlyphClass: 2
Flags: HW
LayerCount: 2
UndoRedoHistory
Layer: 1
Undoes
EndUndoes
Redoes
EndRedoes
EndUndoRedoHistory
Fore
SplineSet
842 1218 m 1
 396 1218 l 1
 363 987 l 1
 809 989 l 1
 842 1218 l 1
EndSplineSet
Refer: 282 -1 N 1 0 0 1 -1 0 2
Refer: 282 -1 N 1 0 0 1 517 2 2
Refer: 209 -1 N 1 0 0 1 500 2 2
EndChar

StartChar: uni045A
Encoding: 250 1114 475
Width: 1428
VWidth: 0
GlyphClass: 2
Flags: HW
LayerCount: 2
UndoRedoHistory
Layer: 1
Undoes
EndUndoes
Redoes
EndRedoes
EndUndoRedoHistory
Fore
SplineSet
755 725 m 1
 326 725 l 1
 294 495 l 1
 723 495 l 1
 755 725 l 1
EndSplineSet
Refer: 282 -1 N 1 0 0 1 -1 0 2
Refer: 282 -1 N 1 0 0 1 517 2 2
Refer: 209 -1 N 1 0 0 1 500 2 2
EndChar

StartChar: uni045F
Encoding: 255 1119 479
Width: 991
VWidth: 0
GlyphClass: 2
Flags: HW
LayerCount: 2
UndoRedoHistory
Layer: 1
Undoes
EndUndoes
Redoes
EndRedoes
EndUndoRedoHistory
Fore
SplineSet
221 0 m 1
 673 0 l 1
 706 236 l 1
 254 236 l 1
 221 0 l 1
EndSplineSet
Refer: 282 -1 N 1 0 0 1 518 0 2
Refer: 282 -1 N 1 0 0 1 -1 0 2
EndChar

StartChar: uni2074
Encoding: 565 8308 495
Width: 724
VWidth: 0
GlyphClass: 2
Flags: HW
LayerCount: 2
UndoRedoHistory
Layer: 1
Undoes
EndUndoes
Redoes
EndRedoes
EndUndoRedoHistory
Fore
SplineSet
395 522 m 1
 612 522 l 1
 644 748 l 1
 753 748 l 1
 776 913 l 1
 667 913 l 1
 731 1370 l 1
 574 1370 l 1
 196 903 l 1
 174 748 l 1
 427 748 l 1
 395 522 l 1
423 913 m 1
 450 913 l 1
 448 898 l 1
 423 913 l 1
EndSplineSet
EndChar

StartChar: uniFB00
Encoding: 566 64256 497
Width: 1074
VWidth: 0
GlyphClass: 2
Flags: W
HStem: 1303 291<474.5 725.873 993 1243.63>
VStem: 240 29<1202.43 1217>
DStem2: 98 0 421 0 0.139044 0.990286<44.9113 967.326 1273.87 1364.81> 616 0 938 0 0.139044 0.990286<44.7723 967.326 1273.73 1364.88>
LayerCount: 2
UndoRedoHistory
Layer: 1
Undoes
EndUndoes
Redoes
EndRedoes
EndUndoRedoHistory
Fore
SplineSet
98 0 m 1
 421 0 l 1
 555 958 l 1
 750 958 l 1
 616 0 l 1
 938 0 l 1
 1073 958 l 1
 1188 958 l 1
 1225 1217 l 1
 1109 1217 l 1
 1110 1225 l 2
 1122 1308 1150 1303 1169 1303 c 0
 1185 1303 1244 1297 1241 1298 c 1
 1281 1581 l 1
 1292 1577 1180 1594 1089 1594 c 0
 897 1594 824 1427 786 1203 c 0
 784 1190 789 1230 787 1217 c 1
 592 1217 l 1
 593 1225 l 2
 605 1308 633 1303 651 1303 c 0
 668 1303 727 1297 723 1298 c 1
 763 1581 l 1
 775 1577 662 1594 571 1594 c 0
 378 1594 305 1427 268 1203 c 0
 266 1190 271 1230 269 1217 c 1
 240 1217 l 1
 204 958 l 1
 232 958 l 1
 98 0 l 1
EndSplineSet
EndChar

StartChar: uniFB01
Encoding: 567 64257 498
Width: 1017
VWidth: 0
GlyphClass: 2
Flags: HW
LayerCount: 2
UndoRedoHistory
Layer: 1
Undoes
EndUndoes
Redoes
EndRedoes
EndUndoRedoHistory
Fore
SplineSet
98 0 m 1
 421 0 l 1
 555 958 l 1
 757 958 l 1
 623 0 l 1
 945 0 l 1
 1116 1217 l 1
 592 1217 l 1
 593 1225 l 2
 605 1308 633 1303 651 1303 c 0
 668 1303 727 1297 723 1298 c 1
 763 1581 l 1
 775 1577 662 1594 571 1594 c 0
 378 1594 305 1427 268 1203 c 0
 266 1190 271 1230 269 1217 c 1
 240 1217 l 1
 204 958 l 1
 232 958 l 1
 98 0 l 1
799 1256 m 1
 1121 1256 l 1
 1169 1593 l 1
 846 1593 l 1
 799 1256 l 1
EndSplineSet
EndChar

StartChar: uniFB02
Encoding: 568 64258 499
Width: 993
VWidth: 0
GlyphClass: 2
Flags: HW
LayerCount: 2
UndoRedoHistory
Layer: 1
Undoes
EndUndoes
Redoes
EndRedoes
EndUndoRedoHistory
Fore
SplineSet
98 0 m 1
 421 0 l 1
 555 958 l 1
 672 958 l 1
 708 1217 l 1
 592 1217 l 1
 593 1225 l 2
 601 1282 613 1301 627 1301 c 0
 652 1301 725 1302 789 1299 c 1
 606 0 l 1
 930 0 l 1
 1152 1580 l 1
 845 1595 667 1594 570 1594 c 0
 339 1594 296 1355 266 1187 c 0
 264 1174 271 1230 269 1217 c 1
 240 1217 l 1
 204 958 l 1
 232 958 l 1
 98 0 l 1
EndSplineSet
EndChar

StartChar: uniFB03
Encoding: 569 64259 500
Width: 1559
VWidth: 0
GlyphClass: 2
Flags: HW
LayerCount: 2
UndoRedoHistory
Layer: 1
Undoes
EndUndoes
Redoes
EndRedoes
EndUndoRedoHistory
Fore
SplineSet
98 0 m 1
 421 0 l 1
 555 958 l 1
 750 958 l 1
 616 0 l 1
 938 0 l 1
 1073 958 l 1
 1301 958 l 1
 1166 0 l 1
 1489 0 l 1
 1660 1217 l 1
 1109 1217 l 1
 1110 1225 l 2
 1122 1308 1150 1303 1169 1303 c 0
 1185 1303 1244 1297 1241 1298 c 1
 1281 1581 l 1
 1292 1577 1180 1594 1089 1594 c 0
 897 1594 824 1427 786 1203 c 0
 784 1190 789 1230 787 1217 c 1
 592 1217 l 1
 593 1225 l 2
 605 1308 633 1303 651 1303 c 0
 668 1303 727 1297 723 1298 c 1
 763 1581 l 1
 775 1577 662 1594 571 1594 c 0
 378 1594 305 1427 268 1203 c 0
 266 1190 271 1230 269 1217 c 1
 240 1217 l 1
 204 958 l 1
 232 958 l 1
 98 0 l 1
1343 1256 m 1
 1665 1256 l 1
 1713 1593 l 1
 1390 1593 l 1
 1343 1256 l 1
EndSplineSet
EndChar

StartChar: uniFB04
Encoding: 570 64260 501
Width: 1555
VWidth: 0
GlyphClass: 2
Flags: HW
LayerCount: 2
UndoRedoHistory
Layer: 1
Undoes
EndUndoes
Redoes
EndRedoes
EndUndoRedoHistory
Fore
SplineSet
98 0 m 1
 421 0 l 1
 555 958 l 1
 796 958 l 1
 661 0 l 1
 983 0 l 1
 1118 958 l 1
 1215 958 l 1
 1251 1217 l 1
 1154 1217 l 1
 1156 1225 l 2
 1164 1282 1196 1301 1256 1301 c 0
 1268 1301 1299 1302 1353 1300 c 1
 1170 0 l 1
 1492 0 l 1
 1712 1566 l 1
 1408 1596 1245 1594 1156 1594 c 0
 906 1594 859 1355 829 1187 c 0
 827 1174 834 1230 832 1217 c 1
 592 1217 l 1
 593 1225 l 2
 605 1308 633 1303 651 1303 c 0
 668 1303 727 1297 723 1298 c 1
 763 1581 l 1
 775 1577 662 1594 571 1594 c 0
 378 1594 305 1427 268 1203 c 0
 266 1190 271 1230 269 1217 c 1
 240 1217 l 1
 204 958 l 1
 232 958 l 1
 98 0 l 1
EndSplineSet
EndChar

StartChar: v
Encoding: 118 118 505
Width: 735
VWidth: 0
GlyphClass: 2
Flags: HW
LayerCount: 2
UndoRedoHistory
Layer: 1
Undoes
EndUndoes
Redoes
EndRedoes
EndUndoRedoHistory
Fore
SplineSet
212 0 m 1
 530 0 l 1
 894 1156 l 1
 593 1156 l 1
 441 471 l 1
 467 1156 l 1
 166 1156 l 1
 212 0 l 1
EndSplineSet
EndChar

StartChar: w
Encoding: 119 119 506
Width: 1018
VWidth: 0
GlyphClass: 2
Flags: W
VStem: 160 268<0 29.2013 549 846.644> 178 267<777.654 1156>
DStem2: 754 529 854 0 0.259794 0.965664<0 648.597>
LayerCount: 2
UndoRedoHistory
Layer: 1
Undoes
EndUndoes
Redoes
EndRedoes
EndUndoRedoHistory
Fore
SplineSet
160 0 m 1x80
 428 0 l 1x80
 593 578 l 1
 582 0 l 1
 854 0 l 1
 1165 1156 l 1
 920 1156 l 1
 754 529 l 1
 796 1156 l 1
 569 1156 l 1
 422 549 l 1
 445 1156 l 1
 178 1156 l 1x40
 160 0 l 1x80
EndSplineSet
EndChar

StartChar: x
Encoding: 120 120 511
Width: 752
VWidth: 0
GlyphClass: 2
Flags: W
LayerCount: 2
UndoRedoHistory
Layer: 1
Undoes
EndUndoes
Redoes
EndRedoes
EndUndoRedoHistory
Fore
SplineSet
-16 0 m 1
 242 0 l 1
 429 411 l 1
 597 517 l 1
 896 1155 l 1
 665 1155 l 1
 464 721 l 1
 310 678 l 1
 -16 0 l 1
444 0 m 1
 770 0 l 1
 485 1155 l 1
 161 1155 l 1
 444 0 l 1
EndSplineSet
EndChar

StartChar: y
Encoding: 121 121 512
Width: 796
VWidth: 0
GlyphClass: 2
Flags: W
HStem: -361 252<103 248.849>
VStem: 159 295<1075.92 1216>
LayerCount: 2
UndoRedoHistory
Layer: 1
Undoes
EndUndoes
Redoes
EndRedoes
EndUndoRedoHistory
Fore
SplineSet
68 -361 m 1
 115 -361 l 1
 282 -364 463 -303 541 -65 c 2
 959 1216 l 1
 664 1216 l 1
 488 568 l 1
 454 1216 l 1
 159 1216 l 1
 264 190 l 2
 268 153 279 26 275 -5 c 0
 262 -99 198 -109 103 -109 c 1
 68 -361 l 1
EndSplineSet
EndChar

StartChar: yen
Encoding: 581 165 516
Width: 981
VWidth: 0
GlyphClass: 2
Flags: HW
LayerCount: 2
UndoRedoHistory
Layer: 1
Undoes
EndUndoes
Redoes
EndRedoes
EndUndoRedoHistory
Fore
SplineSet
335 0 m 1
 625 0 l 1
 659 247 l 1
 817 247 l 1
 849 468 l 1
 690 468 l 1
 697 518 l 1
 856 518 l 1
 886 737 l 1
 773 737 l 1
 1144 1707 l 1
 849 1707 l 1
 919 1883 544 772 614 948 c 1
 589 1707 l 1
 296 1707 l 1
 348 1236 337 1206 389 737 c 1
 282 737 l 1
 251 518 l 1
 408 518 l 1
 401 468 l 1
 244 468 l 1
 213 247 l 1
 370 247 l 1
 335 0 l 1
EndSplineSet
EndChar

StartChar: z
Encoding: 122 122 518
Width: 693
VWidth: 0
GlyphClass: 2
Flags: W
DStem2: 80 226 426 257 0.462834 0.886445<187.62 761.346>
LayerCount: 2
UndoRedoHistory
Layer: 1
Undoes
EndUndoes
Redoes
EndRedoes
EndUndoRedoHistory
Fore
SplineSet
48 0 m 1
 650 0 l 1
 686 257 l 1
 426 257 l 1
 780 935 l 1
 811 1155 l 1
 230 1155 l 1
 193 899 l 1
 436 899 l 1
 80 226 l 1
 48 0 l 1
EndSplineSet
EndChar

StartChar: zero
Encoding: 48 48 522
Width: 982
VWidth: 0
GlyphClass: 2
Flags: HW
LayerCount: 2
UndoRedoHistory
Layer: 1
Undoes
EndUndoes
Redoes
EndRedoes
EndUndoRedoHistory
Fore
SplineSet
535 312 m 0
 465 312 490 468 494 500 c 2
 585 1148 l 2
 590 1185 599 1337 679 1337 c 0
 757 1337 725 1185 720 1148 c 2
 629 500 l 2
 624 467 606 312 535 312 c 0
486 -35 m 0
 764 -35 953 211 992 487 c 2
 1086 1162 l 2
 1126 1449 1024 1686 728 1686 c 0
 430 1686 261 1451 220 1162 c 2
 125 487 l 2
 86 207 201 -35 486 -35 c 0
EndSplineSet
EndChar

StartChar: gravecomb
Encoding: 586 768 523
Width: 10
VWidth: 0
Flags: HW
LayerCount: 2
UndoRedoHistory
Layer: 1
Undoes
EndUndoes
Redoes
EndRedoes
EndUndoRedoHistory
Fore
SplineSet
198 1281 m 1
 424 1281 l 1
 364 1696 l 1
 7 1696 l 1
 198 1281 l 1
EndSplineSet
EndChar

StartChar: acutecomb
Encoding: 587 769 524
Width: 10
VWidth: 0
Flags: HW
LayerCount: 2
UndoRedoHistory
Layer: 1
Undoes
EndUndoes
Redoes
EndRedoes
EndUndoRedoHistory
Fore
SplineSet
-17 1281 m 1
 209 1281 l 1
 516 1696 l 1
 160 1696 l 1
 -17 1281 l 1
EndSplineSet
EndChar

StartChar: circumflexcomb
Encoding: 588 770 525
Width: 13
VWidth: 0
Flags: HW
LayerCount: 2
UndoRedoHistory
Layer: 1
Undoes
EndUndoes
Redoes
EndRedoes
EndUndoRedoHistory
Fore
SplineSet
-131 1247 m 1
 121 1247 l 1
 226 1491 l 5
 265 1247 l 1
 517 1247 l 1
 381 1652 l 1
 111 1652 l 1
 -131 1247 l 1
EndSplineSet
EndChar

StartChar: tildecomb
Encoding: 589 771 526
Width: 13
VWidth: 0
Flags: HW
LayerCount: 2
UndoRedoHistory
Layer: 1
Undoes
EndUndoes
Redoes
EndRedoes
EndUndoRedoHistory
Fore
SplineSet
385 1299 m 0xb0
 491 1299 530 1474 548 1610 c 1
 404 1610 l 1
 405 1599 405 1537 375 1537 c 0xb0
 319 1537 230 1622 93 1622 c 0
 -38 1622 -81 1488 -105 1309 c 1
 54 1309 l 1
 53 1324 53 1393 103 1393 c 0x70
 198 1393 292 1299 385 1299 c 0xb0
EndSplineSet
EndChar

StartChar: macroncomb
Encoding: 590 772 527
Width: 9
VWidth: 0
Flags: HW
LayerCount: 2
UndoRedoHistory
Layer: 1
Undoes
EndUndoes
Redoes
EndRedoes
EndUndoRedoHistory
Fore
SplineSet
-27 1341 m 1
 421 1341 l 1
 450 1545 l 1
 1 1545 l 1
 -27 1341 l 1
EndSplineSet
EndChar

StartChar: brevecomb
Encoding: 591 774 528
Width: 10
VWidth: 0
Flags: HW
LayerCount: 2
UndoRedoHistory
Layer: 1
Undoes
EndUndoes
Redoes
EndRedoes
EndUndoRedoHistory
Fore
SplineSet
176 1344 m 0
 310 1344 431 1451 446 1554 c 0
 446 1556 447 1557 447 1559 c 1
 280 1559 l 1
 271 1495 229 1462 192 1462 c 0
 155 1462 124 1494 133 1559 c 1
 -35 1559 l 1
 -35 1557 -36 1556 -36 1554 c 0
 -51 1451 42 1344 176 1344 c 0
EndSplineSet
EndChar

StartChar: uni0307
Encoding: 592 775 529
Width: 6
VWidth: 0
Flags: HW
LayerCount: 2
UndoRedoHistory
Layer: 1
Undoes
EndUndoes
Redoes
EndRedoes
EndUndoRedoHistory
Fore
SplineSet
61 1396 m 1
 382 1396 l 1
 430 1737 l 1
 109 1737 l 1
 61 1396 l 1
EndSplineSet
EndChar

StartChar: diaeresiscomb
Encoding: 593 776 530
Width: 15
VWidth: 0
Flags: HW
LayerCount: 2
UndoRedoHistory
Layer: 1
Undoes
EndUndoes
Redoes
EndRedoes
EndUndoRedoHistory
Fore
SplineSet
292 1385 m 1
 554 1385 l 1
 600 1713 l 1
 339 1713 l 1
 292 1385 l 1
-149 1385 m 1
 112 1385 l 1
 158 1713 l 1
 -103 1713 l 1
 -149 1385 l 1
EndSplineSet
EndChar

StartChar: uni030A
Encoding: 594 778 531
Width: 9
VWidth: 0
Flags: HW
LayerCount: 2
UndoRedoHistory
Layer: 1
Undoes
EndUndoes
Redoes
EndRedoes
EndUndoRedoHistory
Fore
SplineSet
206 1483 m 0
 173 1483 169 1542 174 1580 c 0
 179 1616 200 1672 232 1672 c 0
 263 1672 266 1610 261 1577 c 0
 256 1542 237 1483 206 1483 c 0
187 1354 m 0
 304 1354 423 1427 444 1578 c 0
 465 1728 366 1801 250 1801 c 0
 133 1801 16 1729 -5 1578 c 0
 -26 1427 70 1354 187 1354 c 0
EndSplineSet
EndChar

StartChar: caroncomb
Encoding: 595 780 532
Width: 14
VWidth: 0
Flags: HW
LayerCount: 2
UndoRedoHistory
Layer: 1
Undoes
EndUndoes
Redoes
EndRedoes
EndUndoRedoHistory
Fore
SplineSet
17 1271 m 1
 346 1271 l 1
 572 1660 l 1
 330 1660 l 1
 206 1443 l 5
 147 1660 l 1
 -93 1660 l 1
 17 1271 l 1
EndSplineSet
EndChar
